Preview_AmstelvarRoman-Short-weight_900.00_width_125.00_size_144.00.ufo
<glyph name="exclam" format="2">
  <advance width="668"/>
  <unicode hex="0021"/>
  <outline>
    <contour>
      <point x="139.0" y="154.0" type="qcurve" smooth="yes"/>
      <point x="139.0" y="227.0"/>
      <point x="246.0" y="325.0"/>
      <point x="333.0" y="325.0" type="qcurve" smooth="yes"/>
      <point x="420.0" y="325.0"/>
      <point x="527.0" y="226.0"/>
      <point x="527.0" y="154.0" type="qcurve" smooth="yes"/>
      <point x="527.0" y="79.0"/>
      <point x="420.0" y="-20.0"/>
      <point x="333.0" y="-20.0" type="qcurve" smooth="yes"/>
      <point x="247.0" y="-20.0"/>
      <point x="139.0" y="79.0"/>
    </contour>
    <contour>
      <point x="116.0" y="1127.0" type="line" smooth="yes"/>
      <point x="101.0" y="1291.0"/>
      <point x="235.0" y="1468.0"/>
      <point x="330.0" y="1467.0" type="qcurve" smooth="yes"/>
      <point x="426.0" y="1467.0"/>
      <point x="565.0" y="1291.0"/>
      <point x="547.0" y="1128.0" type="qcurve" smooth="yes"/>
      <point x="534.0" y="1090.0" type="line"/>
      <point x="423.0" y="691.0" type="line"/>
      <point x="376.0" y="464.0" type="line"/>
      <point x="286.0" y="464.0" type="line"/>
      <point x="238.0" y="691.0" type="line"/>
      <point x="128.0" y="1090.0" type="line"/>
    </contour>
  </outline>
</glyph>
<glyph name="dollar" format="2">
  <advance width="1257"/>
  <unicode hex="0024"/>
  <outline>
    <contour>
      <point x="38.0" y="74.0" type="qcurve"/>
      <point x="52.41129032258064" y="225.66935483870967" type="line"/>
      <point x="112.7983870967742" y="156.1290322580645"/>
      <point x="380.91129032258067" y="57.0"/>
      <point x="557.3064516129032" y="57.0" type="qcurve" smooth="yes"/>
      <point x="712.8306451612904" y="57.0"/>
      <point x="868.016129032258" y="182.8951612903226"/>
      <point x="868.016129032258" y="305.0" type="qcurve" smooth="yes"/>
      <point x="868.016129032258" y="410.0483870967742"/>
      <point x="687.5483870967741" y="535.5887096774194"/>
      <point x="475.35483870967744" y="632.0" type="qcurve" smooth="yes"/>
      <point x="253.3467741935484" y="728.5887096774194"/>
      <point x="15.0" y="974.8951612903226"/>
      <point x="15.0" y="1149.0" type="qcurve" smooth="yes"/>
      <point x="15.0" y="1330.1290322580646"/>
      <point x="328.7096774193548" y="1517.0"/>
      <point x="570.0967741935484" y="1517.0" type="qcurve" smooth="yes"/>
      <point x="745.233870967742" y="1517.0"/>
      <point x="971.7258064516129" y="1449.0"/>
      <point x="1054.6532258064517" y="1399.0" type="qcurve"/>
      <point x="1012.5241935483871" y="1283.3306451612902" type="line"/>
      <point x="925.008064516129" y="1362.741935483871"/>
      <point x="681.516129032258" y="1468.0"/>
      <point x="556.016129032258" y="1468.0" type="qcurve" smooth="yes"/>
      <point x="413.8790322580645" y="1468.0"/>
      <point x="256.0" y="1365.4354838709678"/>
      <point x="256.0" y="1274.0" type="qcurve" smooth="yes"/>
      <point x="256.0" y="1142.024193548387"/>
      <point x="442.5967741935484" y="1031.0"/>
      <point x="646.1209677419355" y="949.0" type="qcurve" smooth="yes"/>
      <point x="856.6451612903226" y="865.0"/>
      <point x="1161.2983870967741" y="592.0"/>
      <point x="1161.2983870967741" y="413.9193548387097" type="qcurve" smooth="yes"/>
      <point x="1161.2983870967741" y="206.3790322580645"/>
      <point x="863.9516129032259" y="-5.0"/>
      <point x="586.1209677419355" y="-5.0" type="qcurve" smooth="yes"/>
      <point x="393.11290322580646" y="-5.0"/>
      <point x="111.9758064516129" y="35.435483870967744"/>
    </contour>
    <contour>
      <point x="536.2258064516129" y="-142.0" type="line"/>
      <point x="536.2258064516129" y="57.0" type="line"/>
      <point x="534.2258064516129" y="57.0" type="line"/>
      <point x="534.2258064516129" y="743.0" type="line"/>
      <point x="608.2258064516129" y="752.0" type="line"/>
      <point x="608.2258064516129" y="57.0" type="line"/>
      <point x="608.2258064516129" y="57.0" type="line"/>
      <point x="608.2258064516129" y="-152.0" type="line"/>
    </contour>
    <contour>
      <point x="528.2258064516129" y="1648.0" type="line"/>
      <point x="600.2258064516129" y="1646.0" type="line"/>
      <point x="600.2258064516129" y="1423.0" type="line"/>
      <point x="601.2258064516129" y="1423.0" type="line"/>
      <point x="601.2258064516129" y="803.0" type="line"/>
      <point x="528.2258064516129" y="799.0" type="line"/>
      <point x="528.2258064516129" y="1423.0" type="line"/>
      <point x="528.2258064516129" y="1423.0" type="line"/>
    </contour>
  </outline>
</glyph>
<glyph name="slash" format="2">
  <advance width="1123"/>
  <unicode hex="002F"/>
  <outline>
    <contour>
      <point x="6.0" y="-101.0" type="line"/>
      <point x="899.9032258064516" y="1590.0" type="line"/>
      <point x="1108.9032258064517" y="1487.0" type="line"/>
      <point x="217.0" y="-203.0" type="line"/>
    </contour>
  </outline>
</glyph>
<glyph name="four" format="2">
  <advance width="1444"/>
  <unicode hex="0034"/>
  <outline>
    <contour>
      <point x="14.0" y="499.0" type="line"/>
      <point x="814.0" y="1465.0" type="line"/>
      <point x="1157.0" y="1455.0" type="line"/>
      <point x="1206.0" y="1375.0" type="line"/>
      <point x="1199.0" y="526.0" type="line"/>
      <point x="1199.0" y="89.0" type="line"/>
      <point x="1409.0" y="54.0" type="line"/>
      <point x="1409.0" y="0.0" type="line"/>
      <point x="447.0" y="0.0" type="line"/>
      <point x="447.0" y="54.0" type="line"/>
      <point x="736.0" y="89.0" type="line"/>
      <point x="725.0" y="529.0" type="line"/>
      <point x="725.0" y="1254.0" type="line"/>
      <point x="146.0" y="569.0" type="line"/>
      <point x="146.0" y="554.0" type="line"/>
      <point x="1391.0" y="569.0" type="line"/>
      <point x="1391.0" y="479.0" type="line"/>
      <point x="33.0" y="448.0" type="line"/>
    </contour>
  </outline>
</glyph>
<glyph name="equal" format="2">
  <advance width="1208"/>
  <unicode hex="003D"/>
  <outline>
    <contour>
      <point x="115.0" y="304.0" type="line"/>
      <point x="115.0" y="530.0" type="line"/>
      <point x="603.2258064516129" y="527.0" type="line"/>
      <point x="1092.4516129032259" y="530.0" type="line"/>
      <point x="1092.4516129032259" y="304.0" type="line"/>
      <point x="603.2258064516129" y="307.0" type="line"/>
    </contour>
    <contour>
      <point x="115.0" y="702.0" type="line"/>
      <point x="115.0" y="928.0" type="line"/>
      <point x="603.2258064516129" y="925.0" type="line"/>
      <point x="1092.4516129032259" y="928.0" type="line"/>
      <point x="1092.4516129032259" y="702.0" type="line"/>
      <point x="603.2258064516129" y="705.0" type="line"/>
    </contour>
  </outline>
</glyph>
<glyph name="question" format="2">
  <advance width="1301"/>
  <unicode hex="003F"/>
  <outline>
    <contour>
      <point x="238.29032258064515" y="152.0" type="qcurve" smooth="yes"/>
      <point x="238.29032258064515" y="223.0"/>
      <point x="346.2903225806451" y="323.0"/>
      <point x="432.2903225806452" y="323.0" type="qcurve" smooth="yes"/>
      <point x="518.2903225806451" y="323.0"/>
      <point x="625.2903225806451" y="223.0"/>
      <point x="625.2903225806451" y="152.0" type="qcurve" smooth="yes"/>
      <point x="625.2903225806451" y="79.0"/>
      <point x="518.2903225806451" y="-22.0"/>
      <point x="432.2903225806452" y="-22.0" type="qcurve" smooth="yes"/>
      <point x="346.2903225806451" y="-22.0"/>
      <point x="238.29032258064515" y="79.0"/>
    </contour>
    <contour>
      <point x="61.0" y="1230.0" type="qcurve" smooth="yes"/>
      <point x="61.0" y="1335.0"/>
      <point x="350.0" y="1533.0"/>
      <point x="633.0" y="1533.0" type="qcurve" smooth="yes"/>
      <point x="931.0" y="1533.0"/>
      <point x="1261.0" y="1362.0"/>
      <point x="1261.0" y="1189.0" type="qcurve" smooth="yes"/>
      <point x="1261.0" y="1069.0"/>
      <point x="1118.0" y="856.0"/>
      <point x="903.0" y="767.0" type="qcurve" smooth="yes"/>
      <point x="725.0" y="686.0"/>
      <point x="480.64516129032256" y="594.6129032258065"/>
      <point x="483.18548387096774" y="470.71774193548384" type="qcurve" smooth="yes"/>
      <point x="486.2903225806452" y="462.0" type="line"/>
      <point x="394.2903225806452" y="462.0" type="line"/>
      <point x="385.18548387096774" y="581.0" type="line" smooth="yes"/>
      <point x="366.23387096774195" y="725.3870967741935"/>
      <point x="524.0" y="891.0"/>
      <point x="644.0" y="968.0" type="qcurve" smooth="yes"/>
      <point x="731.0" y="1023.0"/>
      <point x="843.0" y="1206.0"/>
      <point x="843.0" y="1284.0" type="qcurve" smooth="yes"/>
      <point x="843.0" y="1380.0"/>
      <point x="701.266129032258" y="1420.0"/>
      <point x="590.5645161290322" y="1420.0" type="qcurve" smooth="yes"/>
      <point x="412.7096774193549" y="1420.0"/>
      <point x="206.0" y="1337.0"/>
      <point x="206.0" y="1269.0" type="qcurve" smooth="yes"/>
      <point x="206.0" y="1257.0"/>
      <point x="317.0" y="1191.0"/>
      <point x="316.0" y="1135.0" type="qcurve" smooth="yes"/>
      <point x="314.0" y="1093.0"/>
      <point x="265.0" y="1033.0"/>
      <point x="206.0" y="1033.0" type="qcurve" smooth="yes"/>
      <point x="144.0" y="1033.0"/>
      <point x="61.0" y="1128.0"/>
    </contour>
  </outline>
</glyph>
<glyph name="A" format="2">
  <advance width="1972"/>
  <unicode hex="0041"/>
  <outline>
    <contour>
      <point x="32.0" y="-1.0" type="line"/>
      <point x="34.0" y="68.0" type="line"/>
      <point x="203.0" y="102.0" type="line"/>
      <point x="450.0" y="720.0" type="line"/>
      <point x="785.0" y="1498.0" type="line"/>
      <point x="1250.0" y="1498.0" type="line"/>
      <point x="1522.0" y="804.0" type="line"/>
      <point x="1795.0" y="102.0" type="line"/>
      <point x="1933.0" y="68.0" type="line"/>
      <point x="1931.0" y="0.0" type="line"/>
      <point x="1114.0" y="0.0" type="line"/>
      <point x="1116.0" y="68.0" type="line"/>
      <point x="1266.0" y="106.0" type="line"/>
      <point x="1033.0" y="719.0" type="line"/>
      <point x="790.0" y="1288.0" type="line"/>
      <point x="552.0" y="711.0" type="line"/>
      <point x="307.0" y="108.0" type="line"/>
      <point x="527.0" y="68.0" type="line"/>
      <point x="525.0" y="0.0" type="line"/>
    </contour>
    <contour>
      <point x="804.2258064516129" y="617.0" type="line"/>
      <point x="1194.274193548387" y="625.0" type="line"/>
      <point x="1208.274193548387" y="547.0" type="line"/>
      <point x="802.2258064516129" y="540.0" type="line"/>
    </contour>
    <contour>
      <point x="440.0" y="547.0" type="line"/>
      <point x="453.0" y="624.0" type="line"/>
      <point x="804.2258064516129" y="617.0" type="line"/>
      <point x="802.2258064516129" y="540.0" type="line"/>
    </contour>
  </outline>
</glyph>
<glyph name="B" format="2">
  <advance width="2253"/>
  <unicode hex="0042"/>
  <outline>
    <contour>
      <point x="69.0" y="0.0" type="line"/>
      <point x="69.0" y="55.0" type="line"/>
      <point x="244.0" y="89.0" type="line"/>
      <point x="246.0" y="724.0" type="line"/>
      <point x="244.0" y="1407.0" type="line"/>
      <point x="69.0" y="1441.0" type="line"/>
      <point x="69.0" y="1500.0" type="line"/>
      <point x="1363.1129032258063" y="1500.0" type="line" smooth="yes"/>
      <point x="1674.4032258064517" y="1500.0"/>
      <point x="1958.4112903225805" y="1312.0"/>
      <point x="1958.4112903225805" y="1172.0" type="qcurve" smooth="yes"/>
      <point x="1958.4112903225805" y="1035.0"/>
      <point x="1774.4596774193549" y="860.4354838709677"/>
      <point x="1603.3548387096776" y="839.4354838709677" type="qcurve"/>
      <point x="1603.3548387096776" y="832.4354838709677" type="line"/>
      <point x="1807.975806451613" y="810.1532258064516"/>
      <point x="2056.209677419355" y="613.0"/>
      <point x="2056.209677419355" y="446.2096774193548" type="qcurve" smooth="yes"/>
      <point x="2056.209677419355" y="250.0"/>
      <point x="1748.3790322580644" y="1.0"/>
      <point x="1399.9596774193549" y="0.0" type="qcurve" smooth="yes"/>
    </contour>
    <contour>
      <point x="727.0" y="84.0" type="line"/>
      <point x="743.0" y="63.0" type="line"/>
      <point x="1226.2096774193549" y="63.0" type="line" smooth="yes"/>
      <point x="1395.2096774193549" y="63.0"/>
      <point x="1554.2096774193549" y="232.0"/>
      <point x="1554.2096774193549" y="436.0" type="qcurve" smooth="yes"/>
      <point x="1554.2096774193549" y="625.0"/>
      <point x="1383.1451612903224" y="789.0"/>
      <point x="1247.524193548387" y="789.0" type="qcurve" smooth="yes"/>
      <point x="728.0" y="789.0" type="line"/>
      <point x="723.0" y="779.0" type="line"/>
    </contour>
    <contour>
      <point x="724.0" y="860.0" type="line"/>
      <point x="726.0" y="845.0" type="line"/>
      <point x="1190.2903225806451" y="845.0" type="line" smooth="yes"/>
      <point x="1324.9112903225805" y="845.0"/>
      <point x="1455.2096774193549" y="1020.0"/>
      <point x="1455.2096774193549" y="1180.0" type="qcurve" smooth="yes"/>
      <point x="1455.2096774193549" y="1335.0"/>
      <point x="1317.2096774193549" y="1449.0"/>
      <point x="1210.2096774193549" y="1449.0" type="qcurve" smooth="yes"/>
      <point x="743.0" y="1449.0" type="line"/>
      <point x="728.0" y="1437.0" type="line"/>
    </contour>
  </outline>
</glyph>
<glyph name="C" format="2">
  <advance width="1748"/>
  <unicode hex="0043"/>
  <outline>
    <contour>
      <point x="69.0" y="754.0" type="qcurve" smooth="yes"/>
      <point x="69.0" y="1167.3870967741937"/>
      <point x="652.0" y="1518.0"/>
      <point x="1010.3951612903226" y="1518.0" type="qcurve" smooth="yes"/>
      <point x="1263.0" y="1518.0"/>
      <point x="1505.016129032258" y="1449.3064516129032"/>
      <point x="1596.1451612903227" y="1378.0" type="qcurve"/>
      <point x="1662.1451612903227" y="1489.0" type="line"/>
      <point x="1765.1451612903227" y="1489.0" type="line"/>
      <point x="1765.1451612903227" y="1040.0" type="line"/>
      <point x="1674.1451612903227" y="1040.0" type="line"/>
      <point x="1639.1451612903227" y="1112.0" type="line" smooth="yes"/>
      <point x="1579.1451612903227" y="1291.0"/>
      <point x="1324.0" y="1449.0"/>
      <point x="1030.3387096774195" y="1449.0" type="qcurve" smooth="yes"/>
      <point x="845.0" y="1449.0"/>
      <point x="597.0" y="1133.0"/>
      <point x="597.0" y="724.0" type="qcurve" smooth="yes"/>
      <point x="596.0" y="364.0"/>
      <point x="892.8225806451613" y="74.0"/>
      <point x="1151.217741935484" y="74.0" type="qcurve" smooth="yes"/>
      <point x="1356.9193548387098" y="74.0"/>
      <point x="1673.4516129032259" y="262.4112903225806"/>
      <point x="1731.1451612903227" y="331.0" type="qcurve"/>
      <point x="1761.1451612903227" y="273.0" type="line"/>
      <point x="1741.274193548387" y="196.41129032258064"/>
      <point x="1385.717741935484" y="-23.0"/>
      <point x="914.5967741935484" y="-23.0" type="qcurve" smooth="yes"/>
      <point x="589.5403225806451" y="-23.0"/>
      <point x="69.0" y="387.3790322580645"/>
    </contour>
  </outline>
</glyph>
<glyph name="D" format="2">
  <advance width="2095"/>
  <unicode hex="0044"/>
  <outline>
    <contour>
      <point x="69.0" y="0.0" type="line"/>
      <point x="69.0" y="55.0" type="line"/>
      <point x="244.0" y="94.0" type="line"/>
      <point x="246.0" y="759.0" type="line"/>
      <point x="244.0" y="1404.0" type="line"/>
      <point x="69.0" y="1441.0" type="line"/>
      <point x="69.0" y="1500.0" type="line"/>
      <point x="1166.6451612903224" y="1500.0" type="line" smooth="yes"/>
      <point x="1576.3145161290322" y="1502.0"/>
      <point x="2026.6774193548388" y="1135.0806451612902"/>
      <point x="2026.6774193548388" y="777.0" type="qcurve" smooth="yes"/>
      <point x="2026.6774193548388" y="425.38709677419354"/>
      <point x="1543.2016129032259" y="-9.0"/>
      <point x="1130.1129032258063" y="-6.0" type="qcurve" smooth="yes"/>
    </contour>
    <contour>
      <point x="731.2822580645161" y="55.0" type="line"/>
      <point x="756.9516129032259" y="51.0"/>
      <point x="976.6048387096774" y="46.0"/>
      <point x="1082.1612903225805" y="46.0" type="qcurve" smooth="yes"/>
      <point x="1333.975806451613" y="46.0"/>
      <point x="1510.3951612903227" y="403.61290322580646"/>
      <point x="1509.6774193548388" y="749.0" type="qcurve" smooth="yes"/>
      <point x="1507.9596774193549" y="1103.4435483870968"/>
      <point x="1327.0564516129032" y="1435.0"/>
      <point x="1060.2096774193549" y="1435.0" type="qcurve" smooth="yes"/>
      <point x="955.4758064516129" y="1435.0"/>
      <point x="758.233870967742" y="1423.0"/>
      <point x="732.2822580645161" y="1415.0" type="qcurve"/>
      <point x="728.0" y="748.0" type="line"/>
    </contour>
  </outline>
</glyph>
<glyph name="E" format="2">
  <advance width="1770"/>
  <unicode hex="0045"/>
  <outline>
    <contour>
      <point x="69.0" y="0.0" type="line"/>
      <point x="69.0" y="55.0" type="line"/>
      <point x="244.0" y="86.0" type="line"/>
      <point x="246.0" y="726.0" type="line"/>
      <point x="244.0" y="1410.0" type="line"/>
      <point x="69.0" y="1443.0" type="line"/>
      <point x="69.0" y="1500.0" type="line"/>
      <point x="1633.7016129032259" y="1500.0" type="line"/>
      <point x="1633.7016129032259" y="1167.0" type="line"/>
      <point x="1547.0" y="1167.0" type="line"/>
      <point x="1426.0" y="1430.0" type="line"/>
      <point x="806.0" y="1430.0" type="line"/>
      <point x="737.0" y="1408.0" type="line"/>
      <point x="734.0" y="784.0" type="line"/>
      <point x="737.0" y="113.0" type="line"/>
      <point x="806.0" y="85.0" type="line"/>
      <point x="1497.0" y="85.0" type="line"/>
      <point x="1646.7016129032259" y="393.0" type="line"/>
      <point x="1734.7016129032259" y="393.0" type="line"/>
      <point x="1694.7016129032259" y="0.0" type="line"/>
    </contour>
    <contour>
      <point x="505.0" y="742.0" type="line"/>
      <point x="505.0" y="829.0" type="line"/>
      <point x="1375.7016129032259" y="831.0" type="line"/>
      <point x="1448.7016129032259" y="988.0" type="line"/>
      <point x="1505.7016129032259" y="988.0" type="line"/>
      <point x="1505.7016129032259" y="577.0" type="line"/>
      <point x="1448.7016129032259" y="577.0" type="line"/>
      <point x="1375.7016129032259" y="741.0" type="line"/>
    </contour>
  </outline>
</glyph>
<glyph name="F" format="2">
  <advance width="1734"/>
  <unicode hex="0046"/>
  <outline>
    <contour>
      <point x="69.0" y="0.0" type="line"/>
      <point x="69.0" y="55.0" type="line"/>
      <point x="244.0" y="88.0" type="line"/>
      <point x="246.0" y="761.0" type="line"/>
      <point x="244.0" y="1407.0" type="line"/>
      <point x="69.0" y="1440.0" type="line"/>
      <point x="69.0" y="1500.0" type="line"/>
      <point x="1699.1612903225805" y="1500.0" type="line"/>
      <point x="1699.1612903225805" y="1167.0" type="line"/>
      <point x="1610.0" y="1167.0" type="line"/>
      <point x="1510.0" y="1430.0" type="line"/>
      <point x="783.0" y="1430.0" type="line"/>
      <point x="732.0" y="1403.0" type="line"/>
      <point x="739.0" y="767.0" type="line"/>
      <point x="741.0" y="93.0" type="line"/>
      <point x="880.0" y="56.0" type="line"/>
      <point x="880.0" y="0.0" type="line"/>
    </contour>
    <contour>
      <point x="490.0" y="752.0" type="line"/>
      <point x="490.0" y="825.0" type="line"/>
      <point x="1496.1612903225805" y="831.0" type="line"/>
      <point x="1567.0" y="981.0" type="line"/>
      <point x="1628.1612903225805" y="981.0" type="line"/>
      <point x="1628.1612903225805" y="569.0" type="line"/>
      <point x="1570.1612903225805" y="569.0" type="line"/>
      <point x="1496.1612903225805" y="746.0" type="line"/>
    </contour>
  </outline>
</glyph>
<glyph name="G" format="2">
  <advance width="2111"/>
  <unicode hex="0047"/>
  <outline>
    <contour>
      <point x="70.0" y="724.0" type="qcurve" smooth="yes"/>
      <point x="70.0" y="1114.0"/>
      <point x="556.0" y="1517.0"/>
      <point x="1101.0" y="1517.0" type="qcurve" smooth="yes"/>
      <point x="1258.0" y="1517.0"/>
      <point x="1567.0" y="1488.0"/>
      <point x="1691.0" y="1429.0" type="qcurve"/>
      <point x="1729.0" y="1489.0" type="line"/>
      <point x="1824.0" y="1489.0" type="line"/>
      <point x="1824.0" y="1056.0" type="line"/>
      <point x="1734.0" y="1056.0" type="line"/>
      <point x="1650.0" y="1276.0" type="line" smooth="yes"/>
      <point x="1618.0" y="1339.0"/>
      <point x="1335.0" y="1458.0"/>
      <point x="1130.0" y="1460.0" type="qcurve" smooth="yes"/>
      <point x="895.0" y="1463.0"/>
      <point x="600.0" y="1189.0"/>
      <point x="596.0" y="750.0" type="qcurve" smooth="yes"/>
      <point x="592.0" y="292.0"/>
      <point x="806.0" y="63.0"/>
      <point x="1054.0" y="63.0" type="qcurve" smooth="yes"/>
      <point x="1192.0" y="63.0"/>
      <point x="1386.0" y="97.0"/>
      <point x="1425.0" y="98.0" type="qcurve"/>
      <point x="1425.0" y="625.0" type="line"/>
      <point x="1247.0" y="655.0" type="line"/>
      <point x="1247.0" y="725.0" type="line"/>
      <point x="2033.0" y="725.0" type="line"/>
      <point x="2033.0" y="655.0" type="line"/>
      <point x="1912.0" y="625.0" type="line"/>
      <point x="1912.0" y="199.0" type="line"/>
      <point x="1776.0" y="79.0"/>
      <point x="1262.0" y="-20.0"/>
      <point x="963.0" y="-23.0" type="qcurve" smooth="yes"/>
      <point x="583.0" y="-28.0"/>
      <point x="70.0" y="304.0"/>
    </contour>
  </outline>
</glyph>
<glyph name="L" format="2">
  <advance width="1584"/>
  <unicode hex="004C"/>
  <outline>
    <contour>
      <point x="111.0" y="0.0" type="line"/>
      <point x="111.0" y="55.0" type="line"/>
      <point x="244.0" y="92.0" type="line"/>
      <point x="246.0" y="754.0" type="line"/>
      <point x="244.0" y="1407.0" type="line"/>
      <point x="69.0" y="1440.0" type="line"/>
      <point x="69.0" y="1500.0" type="line"/>
      <point x="899.0" y="1500.0" type="line"/>
      <point x="899.0" y="1441.0" type="line"/>
      <point x="737.0" y="1407.0" type="line"/>
      <point x="736.0" y="754.0" type="line"/>
      <point x="738.0" y="92.0" type="line"/>
      <point x="785.0" y="70.0" type="line"/>
      <point x="1260.5645161290322" y="70.0" type="line"/>
      <point x="1425.5645161290322" y="394.0" type="line"/>
      <point x="1511.5645161290322" y="394.0" type="line"/>
      <point x="1470.5645161290322" y="0.0" type="line"/>
    </contour>
  </outline>
</glyph>
<glyph name="M" format="2">
  <advance width="2490"/>
  <unicode hex="004D"/>
  <outline>
    <contour>
      <point x="78.0" y="0.0" type="line"/>
      <point x="78.0" y="55.0" type="line"/>
      <point x="269.0" y="90.0" type="line"/>
      <point x="271.0" y="747.0" type="line"/>
      <point x="271.0" y="1408.0" type="line"/>
      <point x="78.0" y="1442.0" type="line"/>
      <point x="78.0" y="1500.0" type="line"/>
      <point x="750.0" y="1500.0" type="line"/>
      <point x="976.0" y="925.0" type="line"/>
      <point x="1215.0" y="305.0" type="line"/>
      <point x="1466.0" y="927.0" type="line"/>
      <point x="1699.0" y="1500.0" type="line"/>
      <point x="2361.0" y="1500.0" type="line"/>
      <point x="2361.0" y="1442.0" type="line"/>
      <point x="2197.0" y="1408.0" type="line"/>
      <point x="2195.0" y="751.0" type="line"/>
      <point x="2197.0" y="90.0" type="line"/>
      <point x="2361.0" y="55.0" type="line"/>
      <point x="2361.0" y="0.0" type="line"/>
      <point x="1581.0" y="2.0" type="line"/>
      <point x="1581.0" y="57.0" type="line"/>
      <point x="1702.0" y="90.0" type="line"/>
      <point x="1705.0" y="749.0" type="line"/>
      <point x="1699.0" y="1396.0" type="line"/>
      <point x="1481.0" y="790.0" type="line"/>
      <point x="1208.0" y="7.0" type="line"/>
      <point x="833.0" y="7.0" type="line"/>
      <point x="581.0" y="701.0" type="line"/>
      <point x="329.0" y="1414.0" type="line"/>
      <point x="324.0" y="747.0" type="line"/>
      <point x="327.0" y="90.0" type="line"/>
      <point x="464.0" y="57.0" type="line"/>
      <point x="464.0" y="2.0" type="line"/>
    </contour>
  </outline>
</glyph>
<glyph name="O" format="2">
  <advance width="2182"/>
  <unicode hex="004F"/>
  <outline>
    <contour>
      <point x="66.0" y="747.0" type="qcurve" smooth="yes"/>
      <point x="66.0" y="1109.0"/>
      <point x="670.0" y="1526.0"/>
      <point x="1090.0" y="1526.0" type="qcurve" smooth="yes"/>
      <point x="1529.0" y="1526.0"/>
      <point x="2116.0" y="1127.0"/>
      <point x="2116.0" y="772.0" type="qcurve" smooth="yes"/>
      <point x="2116.0" y="388.0"/>
      <point x="1519.0" y="-20.0"/>
      <point x="1095.7016129032259" y="-20.0" type="qcurve" smooth="yes"/>
      <point x="650.0" y="-20.0"/>
      <point x="66.0" y="367.0"/>
    </contour>
    <contour>
      <point x="605.0" y="761.0" type="qcurve" smooth="yes"/>
      <point x="605.0" y="315.0"/>
      <point x="875.5322580645161" y="47.0"/>
      <point x="1098.7016129032259" y="47.0" type="qcurve" smooth="yes"/>
      <point x="1310.5645161290322" y="47.0"/>
      <point x="1570.8387096774193" y="328.0"/>
      <point x="1570.8387096774193" y="762.0" type="qcurve" smooth="yes"/>
      <point x="1570.8387096774193" y="1166.0"/>
      <point x="1321.8709677419356" y="1464.0"/>
      <point x="1079.7016129032259" y="1464.0" type="qcurve" smooth="yes"/>
      <point x="865.5564516129032" y="1464.0"/>
      <point x="605.0" y="1165.0"/>
    </contour>
  </outline>
</glyph>
<glyph name="P" format="2">
  <advance width="1888"/>
  <unicode hex="0050"/>
  <outline>
    <contour>
      <point x="69.0" y="0.0" type="line"/>
      <point x="69.0" y="55.0" type="line"/>
      <point x="244.0" y="90.0" type="line"/>
      <point x="246.0" y="754.0" type="line"/>
      <point x="244.0" y="1407.0" type="line"/>
      <point x="69.0" y="1441.0" type="line"/>
      <point x="69.0" y="1500.0" type="line"/>
      <point x="1249.1532258064517" y="1500.0" type="line" smooth="yes"/>
      <point x="1520.8064516129032" y="1500.0"/>
      <point x="1805.024193548387" y="1286.5645161290322"/>
      <point x="1805.024193548387" y="1077.5645161290322" type="qcurve" smooth="yes"/>
      <point x="1805.024193548387" y="800.5645161290323"/>
      <point x="1438.6774193548385" y="567.0"/>
      <point x="1038.3790322580644" y="567.0" type="qcurve" smooth="yes"/>
      <point x="987.4032258064516" y="567.0"/>
      <point x="725.0" y="576.0"/>
      <point x="656.0" y="594.0" type="qcurve"/>
      <point x="665.0" y="679.0" type="line"/>
      <point x="708.2016129032259" y="667.5403225806451"/>
      <point x="952.9677419354839" y="653.0"/>
      <point x="997.6612903225806" y="653.0" type="qcurve" smooth="yes"/>
      <point x="1173.1693548387098" y="653.0"/>
      <point x="1343.024193548387" y="813.0"/>
      <point x="1339.024193548387" y="1067.0" type="qcurve" smooth="yes"/>
      <point x="1336.024193548387" y="1252.0"/>
      <point x="1154.733870967742" y="1410.0"/>
      <point x="1027.008064516129" y="1410.0" type="qcurve" smooth="yes"/>
      <point x="746.0" y="1410.0" type="line"/>
      <point x="731.0" y="1391.0" type="line"/>
      <point x="728.0" y="764.0" type="line"/>
      <point x="730.0" y="93.0" type="line"/>
      <point x="894.0" y="55.0" type="line"/>
      <point x="894.0" y="0.0" type="line"/>
    </contour>
  </outline>
</glyph>
<glyph name="T" format="2">
  <advance width="1833"/>
  <unicode hex="0054"/>
  <outline>
    <contour>
      <point x="50.0" y="1169.0" type="line"/>
      <point x="50.0" y="1500.0" type="line"/>
      <point x="1783.3225806451612" y="1500.0" type="line"/>
      <point x="1783.3225806451612" y="1169.0" type="line"/>
      <point x="1700.3225806451612" y="1169.0" type="line"/>
      <point x="1587.0" y="1431.0" type="line"/>
      <point x="1199.1612903225805" y="1431.0" type="line"/>
      <point x="1155.1612903225805" y="1423.0" type="line"/>
      <point x="1158.1612903225805" y="754.0" type="line"/>
      <point x="1159.1612903225805" y="90.0" type="line"/>
      <point x="1344.1612903225805" y="55.0" type="line"/>
      <point x="1344.1612903225805" y="0.0" type="line"/>
      <point x="487.16129032258067" y="0.0" type="line"/>
      <point x="487.16129032258067" y="55.0" type="line"/>
      <point x="670.1612903225807" y="90.0" type="line"/>
      <point x="672.1612903225807" y="754.0" type="line"/>
      <point x="677.1612903225807" y="1423.0" type="line"/>
      <point x="625.1612903225807" y="1431.0" type="line"/>
      <point x="235.0" y="1431.0" type="line"/>
      <point x="132.0" y="1169.0" type="line"/>
    </contour>
  </outline>
</glyph>
<glyph name="U" format="2">
  <advance width="2101"/>
  <unicode hex="0055"/>
  <outline>
    <contour>
      <point x="52.0" y="1442.0" type="line"/>
      <point x="52.0" y="1500.0" type="line"/>
      <point x="908.0" y="1500.0" type="line"/>
      <point x="908.0" y="1442.0" type="line"/>
      <point x="758.0" y="1408.0" type="line"/>
      <point x="755.0" y="864.0" type="line"/>
      <point x="755.0" y="573.491935483871" type="line" smooth="yes"/>
      <point x="757.2822580645161" y="350.491935483871"/>
      <point x="870.9112903225806" y="91.71774193548387"/>
      <point x="1196.516129032258" y="91.71774193548387" type="qcurve" smooth="yes"/>
      <point x="1542.6693548387098" y="91.71774193548387"/>
      <point x="1744.5483870967741" y="343.11290322580646"/>
      <point x="1743.7016129032259" y="597.1129032258065" type="qcurve" smooth="yes"/>
      <point x="1741.5725806451612" y="864.0" type="line"/>
      <point x="1740.5725806451612" y="1408.0" type="line"/>
      <point x="1532.5725806451615" y="1442.0" type="line"/>
      <point x="1532.5725806451615" y="1500.0" type="line"/>
      <point x="1999.5725806451612" y="1500.0" type="line"/>
      <point x="1999.5725806451612" y="1442.0" type="line"/>
      <point x="1799.5725806451612" y="1408.0" type="line"/>
      <point x="1800.5725806451612" y="864.0" type="line"/>
      <point x="1799.1612903225807" y="584.8790322580645" type="line" smooth="yes"/>
      <point x="1800.75" y="276.7016129032258"/>
      <point x="1491.9193548387098" y="-20.0"/>
      <point x="1043.0564516129032" y="-20.0" type="qcurve" smooth="yes"/>
      <point x="584.3790322580645" y="-20.0"/>
      <point x="245.43548387096774" y="248.76612903225805"/>
      <point x="245.71774193548387" y="576.1612903225807" type="qcurve" smooth="yes"/>
      <point x="247.0" y="864.0" type="line"/>
      <point x="246.0" y="1408.0" type="line"/>
    </contour>
  </outline>
</glyph>
<glyph name="V" format="2">
  <advance width="2084"/>
  <unicode hex="0056"/>
  <outline>
    <contour>
      <point x="46.0" y="1442.0" type="line"/>
      <point x="46.0" y="1500.0" type="line"/>
      <point x="886.3064516129032" y="1500.0" type="line"/>
      <point x="886.3064516129032" y="1442.0" type="line"/>
      <point x="717.3064516129032" y="1415.0" type="line"/>
      <point x="926.1935483870968" y="919.0725806451613" type="line"/>
      <point x="1256.491935483871" y="243.1451612903226" type="line"/>
      <point x="1512.0483870967741" y="862.8709677419355" type="line"/>
      <point x="1704.524193548387" y="1407.0" type="line"/>
      <point x="1511.524193548387" y="1442.0" type="line"/>
      <point x="1509.524193548387" y="1500.0" type="line"/>
      <point x="2021.6774193548388" y="1500.0" type="line"/>
      <point x="2022.6774193548388" y="1442.0" type="line"/>
      <point x="1813.6774193548388" y="1415.0" type="line"/>
      <point x="1598.3548387096776" y="879.1774193548387" type="line"/>
      <point x="1272.3387096774195" y="2.0" type="line"/>
      <point x="824.3387096774194" y="2.0" type="line"/>
      <point x="453.83870967741933" y="829.7096774193549" type="line"/>
      <point x="193.0" y="1413.0" type="line"/>
    </contour>
  </outline>
</glyph>
<glyph name="W" format="2">
  <advance width="2838"/>
  <unicode hex="0057"/>
  <outline>
    <contour>
      <point x="47.0" y="1444.0" type="line"/>
      <point x="47.0" y="1500.0" type="line"/>
      <point x="879.0" y="1500.0" type="line"/>
      <point x="879.0" y="1444.0" type="line"/>
      <point x="707.0" y="1417.0" type="line"/>
      <point x="919.0" y="835.0" type="line"/>
      <point x="1127.0483870967741" y="336.7096774193549" type="line"/>
      <point x="1308.1854838709678" y="917.4677419354839" type="line"/>
      <point x="1409.983870967742" y="1196.1774193548388" type="line"/>
      <point x="1493.983870967742" y="1122.0" type="line"/>
      <point x="1378.6209677419356" y="836.9032258064516" type="line"/>
      <point x="1138.225806451613" y="2.0" type="line"/>
      <point x="714.2258064516129" y="2.0" type="line"/>
      <point x="454.6532258064516" y="741.8629032258065" type="line"/>
      <point x="216.0" y="1415.0" type="line"/>
    </contour>
    <contour>
      <point x="1119.1612903225805" y="1437.0" type="line"/>
      <point x="1119.1612903225805" y="1500.0" type="line"/>
      <point x="1886.0" y="1500.0" type="line"/>
      <point x="1886.0" y="1437.0" type="line"/>
      <point x="1719.0" y="1411.0" type="line"/>
      <point x="1930.0" y="851.0" type="line"/>
      <point x="2144.9193548387098" y="360.7096774193549" type="line"/>
      <point x="2285.9032258064517" y="833.9193548387096" type="line"/>
      <point x="2446.145161290323" y="1405.0" type="line"/>
      <point x="2235.145161290323" y="1444.0" type="line"/>
      <point x="2235.145161290323" y="1500.0" type="line"/>
      <point x="2772.322580645161" y="1500.0" type="line"/>
      <point x="2772.322580645161" y="1444.0" type="line"/>
      <point x="2534.322580645161" y="1414.0" type="line"/>
      <point x="2367.927419354839" y="829.9193548387096" type="line"/>
      <point x="2154.0967741935483" y="2.0" type="line"/>
      <point x="1744.0967741935483" y="2.0" type="line"/>
      <point x="1507.0645161290322" y="725.3306451612904" type="line"/>
      <point x="1265.1612903225805" y="1408.0" type="line"/>
    </contour>
  </outline>
</glyph>
<glyph name="X" format="2">
  <advance width="2109"/>
  <unicode hex="0058"/>
  <outline>
    <contour>
      <point x="-4.0" y="0.0" type="line"/>
      <point x="-4.0" y="55.0" type="line"/>
      <point x="232.0" y="86.0" type="line"/>
      <point x="975.0241935483871" y="801.6048387096774" type="line"/>
      <point x="1109.8225806451615" y="810.0725806451613" type="line"/>
      <point x="1645.2096774193549" y="1406.0" type="line"/>
      <point x="1448.2096774193549" y="1442.0" type="line"/>
      <point x="1448.2096774193549" y="1500.0" type="line"/>
      <point x="2015.2096774193549" y="1500.0" type="line"/>
      <point x="2015.2096774193549" y="1442.0" type="line"/>
      <point x="1786.2096774193549" y="1410.0" type="line"/>
      <point x="1145.9274193548385" y="759.258064516129" type="line"/>
      <point x="1009.258064516129" y="751.9193548387096" type="line"/>
      <point x="379.0" y="94.0" type="line"/>
      <point x="599.0" y="55.0" type="line"/>
      <point x="599.0" y="0.0" type="line"/>
    </contour>
    <contour>
      <point x="50.0" y="1442.0" type="line"/>
      <point x="50.0" y="1500.0" type="line"/>
      <point x="1021.8225806451612" y="1500.0" type="line"/>
      <point x="1021.8225806451612" y="1442.0" type="line"/>
      <point x="847.8225806451612" y="1409.0" type="line"/>
      <point x="1271.975806451613" y="853.483870967742" type="line"/>
      <point x="1904.2096774193549" y="89.0" type="line"/>
      <point x="2087.209677419355" y="55.0" type="line"/>
      <point x="2087.209677419355" y="0.0" type="line"/>
      <point x="1079.3870967741937" y="0.0" type="line"/>
      <point x="1079.3870967741937" y="55.0" type="line"/>
      <point x="1275.0" y="89.0" type="line"/>
      <point x="812.0" y="703.0" type="line"/>
      <point x="239.0" y="1408.0" type="line"/>
    </contour>
  </outline>
</glyph>
<glyph name="Z" format="2">
  <advance width="1811"/>
  <unicode hex="005A"/>
  <outline>
    <contour>
      <point x="106.0" y="0.0" type="line"/>
      <point x="88.0" y="56.0" type="line"/>
      <point x="1116.0" y="1417.0" type="line"/>
      <point x="1111.0" y="1430.0" type="line"/>
      <point x="294.0" y="1430.0" type="line"/>
      <point x="153.0" y="1150.0" type="line"/>
      <point x="98.0" y="1150.0" type="line"/>
      <point x="98.0" y="1500.0" type="line"/>
      <point x="1694.5645161290322" y="1500.0" type="line"/>
      <point x="1694.5645161290322" y="1430.0" type="line"/>
      <point x="705.6451612903226" y="112.0" type="line"/>
      <point x="711.6451612903226" y="85.0" type="line"/>
      <point x="1494.0" y="85.0" type="line"/>
      <point x="1649.5645161290322" y="422.0" type="line"/>
      <point x="1747.5645161290322" y="422.0" type="line"/>
      <point x="1701.5645161290322" y="0.0" type="line"/>
    </contour>
  </outline>
</glyph>
<glyph name="c" format="2">
  <advance width="1454"/>
  <unicode hex="0063"/>
  <outline>
    <contour>
      <point x="63.0" y="466.0" type="qcurve" smooth="yes"/>
      <point x="63.0" y="713.0"/>
      <point x="512.0" y="1002.0"/>
      <point x="859.0" y="1002.0" type="qcurve" smooth="yes"/>
      <point x="1028.0" y="1002.0"/>
      <point x="1261.0" y="928.0"/>
      <point x="1335.0" y="880.0" type="qcurve"/>
      <point x="1388.0" y="991.0" type="line"/>
      <point x="1455.0" y="991.0" type="line"/>
      <point x="1455.0" y="641.0" type="line"/>
      <point x="1378.0" y="641.0" type="line"/>
      <point x="1352.0" y="764.0" type="line" smooth="yes"/>
      <point x="1331.0" y="861.0"/>
      <point x="1084.0" y="912.0"/>
      <point x="941.0" y="912.0" type="qcurve" smooth="yes"/>
      <point x="782.0" y="912.0"/>
      <point x="558.0" y="720.0"/>
      <point x="558.0" y="490.0" type="qcurve" smooth="yes"/>
      <point x="558.0" y="237.0"/>
      <point x="792.0" y="82.0"/>
      <point x="961.0" y="82.0" type="qcurve" smooth="yes"/>
      <point x="1103.0" y="82.0"/>
      <point x="1363.0" y="186.0"/>
      <point x="1430.0" y="274.0" type="qcurve"/>
      <point x="1489.0" y="188.0" type="line"/>
      <point x="1408.0" y="99.0"/>
      <point x="1036.0" y="-35.0"/>
      <point x="802.0" y="-35.0" type="qcurve" smooth="yes"/>
      <point x="484.0" y="-35.0"/>
      <point x="63.0" y="224.0"/>
    </contour>
  </outline>
</glyph>
<glyph name="d" format="2">
  <advance width="1970"/>
  <unicode hex="0064"/>
  <outline>
    <contour>
      <point x="60.0" y="478.0" type="qcurve" smooth="yes"/>
      <point x="60.0" y="752.0"/>
      <point x="487.0" y="1002.0"/>
      <point x="827.0" y="1002.0" type="qcurve" smooth="yes"/>
      <point x="951.0" y="1002.0"/>
      <point x="1190.0" y="955.0"/>
      <point x="1244.0" y="924.0" type="qcurve"/>
      <point x="1251.0" y="1397.0" type="line"/>
      <point x="1049.0" y="1436.0" type="line"/>
      <point x="1049.0" y="1500.0" type="line"/>
      <point x="1646.0" y="1512.0" type="line"/>
      <point x="1688.0" y="1511.0" type="line"/>
      <point x="1736.0" y="1462.0" type="line"/>
      <point x="1731.0" y="498.0" type="line"/>
      <point x="1734.0" y="100.0" type="line"/>
      <point x="1927.0" y="65.0" type="line"/>
      <point x="1927.0" y="0.0" type="line"/>
      <point x="1268.0" y="0.0" type="line"/>
      <point x="1254.0" y="17.0" type="line"/>
      <point x="1251.0" y="106.0" type="line"/>
      <point x="1192.0" y="59.0"/>
      <point x="897.0" y="-23.0"/>
      <point x="710.0" y="-23.0" type="qcurve" smooth="yes"/>
      <point x="460.0" y="-23.0"/>
      <point x="60.0" y="212.0"/>
    </contour>
    <contour>
      <point x="550.0" y="486.0" type="qcurve" smooth="yes"/>
      <point x="550.0" y="204.0"/>
      <point x="725.0" y="80.0"/>
      <point x="845.0" y="80.0" type="qcurve" smooth="yes"/>
      <point x="987.0" y="80.0"/>
      <point x="1204.0" y="162.0"/>
      <point x="1243.0" y="221.0" type="qcurve"/>
      <point x="1238.0" y="510.0" type="line"/>
      <point x="1234.0" y="809.0" type="line"/>
      <point x="1210.0" y="832.0"/>
      <point x="1028.0" y="883.0"/>
      <point x="939.0" y="883.0" type="qcurve" smooth="yes"/>
      <point x="750.0" y="883.0"/>
      <point x="550.0" y="749.0"/>
    </contour>
  </outline>
</glyph>
<glyph name="g" format="2">
  <advance width="1605"/>
  <unicode hex="0067"/>
  <outline>
    <contour>
      <point x="89.0" y="-222.0" type="qcurve" smooth="yes"/>
      <point x="89.0" y="-135.0"/>
      <point x="343.0" y="9.0"/>
      <point x="562.0" y="18.0" type="qcurve"/>
      <point x="583.0" y="-5.0" type="line"/>
      <point x="472.0" y="-42.0"/>
      <point x="342.0" y="-168.0"/>
      <point x="342.0" y="-244.0" type="qcurve" smooth="yes"/>
      <point x="342.0" y="-329.0"/>
      <point x="591.0" y="-421.0"/>
      <point x="785.0" y="-421.0" type="qcurve" smooth="yes"/>
      <point x="1014.0" y="-421.0"/>
      <point x="1211.0" y="-289.0"/>
      <point x="1211.0" y="-229.0" type="qcurve" smooth="yes"/>
      <point x="1211.0" y="-166.0"/>
      <point x="1069.0" y="-99.0"/>
      <point x="832.0" y="-80.0" type="qcurve" smooth="yes"/>
      <point x="482.0" y="-59.0"/>
      <point x="131.0" y="67.0"/>
      <point x="131.0" y="144.0" type="qcurve" smooth="yes"/>
      <point x="131.0" y="205.66129032258064"/>
      <point x="290.6612903225806" y="311.63709677419354"/>
      <point x="418.0" y="347.0" type="qcurve"/>
      <point x="499.0" y="341.0" type="line"/>
      <point x="406.48387096774195" y="314.4596774193548"/>
      <point x="315.0" y="260.0725806451613"/>
      <point x="315.0" y="241.0" type="qcurve" smooth="yes"/>
      <point x="315.0" y="205.0"/>
      <point x="487.0" y="192.0"/>
      <point x="866.0" y="168.0" type="qcurve" smooth="yes"/>
      <point x="1306.0" y="140.0"/>
      <point x="1599.0" y="14.0"/>
      <point x="1599.0" y="-136.0" type="qcurve" smooth="yes"/>
      <point x="1599.0" y="-282.0"/>
      <point x="1222.0" y="-468.0"/>
      <point x="844.0" y="-468.0" type="qcurve" smooth="yes"/>
      <point x="465.0" y="-468.0"/>
      <point x="89.0" y="-323.0"/>
    </contour>
    <contour>
      <point x="159.0" y="620.0" type="qcurve" smooth="yes"/>
      <point x="159.0" y="807.0"/>
      <point x="501.0" y="992.0"/>
      <point x="827.0" y="992.0" type="qcurve" smooth="yes"/>
      <point x="1153.0" y="992.0"/>
      <point x="1504.0" y="809.0"/>
      <point x="1505.0" y="625.0" type="qcurve" smooth="yes"/>
      <point x="1507.0" y="440.0"/>
      <point x="1154.0" y="236.0"/>
      <point x="831.0" y="236.0" type="qcurve" smooth="yes"/>
      <point x="506.0" y="236.0"/>
      <point x="159.0" y="432.0"/>
    </contour>
    <contour>
      <point x="562.0" y="622.0" type="qcurve" smooth="yes"/>
      <point x="562.0" y="412.0"/>
      <point x="710.0" y="295.0"/>
      <point x="843.0" y="295.0" type="qcurve" smooth="yes"/>
      <point x="940.0" y="295.0"/>
      <point x="1111.0" y="419.0"/>
      <point x="1111.0" y="627.0" type="qcurve" smooth="yes"/>
      <point x="1111.0" y="831.0"/>
      <point x="942.0" y="941.0"/>
      <point x="826.0" y="941.0" type="qcurve" smooth="yes"/>
      <point x="711.0" y="941.0"/>
      <point x="562.0" y="818.0"/>
    </contour>
    <contour>
      <point x="1009.0" y="884.0" type="line"/>
      <point x="991.0" y="949.0" type="line"/>
      <point x="1598.0" y="952.0" type="line"/>
      <point x="1598.0" y="855.0" type="line"/>
    </contour>
  </outline>
</glyph>
<glyph name="i" format="2">
  <advance width="877"/>
  <unicode hex="0069"/>
  <outline>
    <contour>
      <point x="69.0" y="0.0" type="line"/>
      <point x="69.0" y="65.0" type="line"/>
      <point x="220.0" y="100.0" type="line"/>
      <point x="222.0" y="502.0" type="line"/>
      <point x="221.0" y="845.0" type="line"/>
      <point x="68.0" y="880.0" type="line"/>
      <point x="68.0" y="943.0" type="line"/>
      <point x="578.0" y="979.0" type="line"/>
      <point x="643.0" y="979.0" type="line"/>
      <point x="698.0" y="930.0" type="line"/>
      <point x="691.0" y="502.0" type="line"/>
      <point x="693.0" y="100.0" type="line"/>
      <point x="832.0" y="65.0" type="line"/>
      <point x="832.0" y="0.0" type="line"/>
    </contour>
    <contour>
      <point x="191.0" y="1252.0" type="qcurve" smooth="yes"/>
      <point x="191.0" y="1318.0"/>
      <point x="331.0" y="1418.0"/>
      <point x="452.0" y="1418.0" type="qcurve" smooth="yes"/>
      <point x="571.0" y="1418.0"/>
      <point x="719.0" y="1324.0"/>
      <point x="718.0" y="1252.0" type="qcurve" smooth="yes"/>
      <point x="718.0" y="1191.0"/>
      <point x="577.0" y="1097.0"/>
      <point x="454.0" y="1097.0" type="qcurve" smooth="yes"/>
      <point x="336.0" y="1097.0"/>
      <point x="191.0" y="1191.0"/>
    </contour>
  </outline>
</glyph>
<glyph name="j" format="2">
  <advance width="833"/>
  <unicode hex="006A"/>
  <outline>
    <contour>
      <point x="54.0" y="-453.0" type="qcurve"/>
      <point x="48.0" y="-365.0" type="line"/>
      <point x="131.0" y="-365.0"/>
      <point x="210.0" y="-251.0"/>
      <point x="210.0" y="-152.0" type="qcurve" smooth="yes"/>
      <point x="213.0" y="482.0" type="line"/>
      <point x="212.0" y="845.0" type="line"/>
      <point x="54.0" y="880.0" type="line"/>
      <point x="54.0" y="943.0" type="line"/>
      <point x="566.0" y="979.0" type="line"/>
      <point x="630.0" y="979.0" type="line"/>
      <point x="685.0" y="926.0" type="line"/>
      <point x="675.0" y="482.0" type="line"/>
      <point x="682.0" y="-65.0" type="line" smooth="yes"/>
      <point x="684.0" y="-254.0"/>
      <point x="400.0" y="-458.0"/>
    </contour>
    <contour>
      <point x="167.0" y="1252.0" type="qcurve" smooth="yes"/>
      <point x="167.0" y="1318.0"/>
      <point x="307.0" y="1418.0"/>
      <point x="428.0" y="1418.0" type="qcurve" smooth="yes"/>
      <point x="547.0" y="1418.0"/>
      <point x="695.0" y="1324.0"/>
      <point x="694.0" y="1252.0" type="qcurve" smooth="yes"/>
      <point x="694.0" y="1191.0"/>
      <point x="553.0" y="1097.0"/>
      <point x="430.0" y="1097.0" type="qcurve" smooth="yes"/>
      <point x="312.0" y="1097.0"/>
      <point x="167.0" y="1191.0"/>
    </contour>
  </outline>
</glyph>
<glyph name="k" format="2">
  <advance width="1715"/>
  <unicode hex="006B"/>
  <outline>
    <contour>
      <point x="57.0" y="0.0" type="line"/>
      <point x="57.0" y="65.0" type="line"/>
      <point x="243.0" y="100.0" type="line"/>
      <point x="245.0" y="482.0" type="line"/>
      <point x="243.0" y="1396.0" type="line"/>
      <point x="90.0" y="1436.0" type="line"/>
      <point x="90.0" y="1500.0" type="line"/>
      <point x="640.0" y="1512.0" type="line"/>
      <point x="665.0" y="1511.0" type="line"/>
      <point x="715.0" y="1463.0" type="line"/>
      <point x="720.0" y="536.0" type="line"/>
      <point x="717.0" y="100.0" type="line"/>
      <point x="879.0" y="65.0" type="line"/>
      <point x="879.0" y="0.0" type="line"/>
    </contour>
    <contour>
      <point x="677.0" y="369.0" type="line"/>
      <point x="642.0" y="433.0" type="line"/>
      <point x="1270.0" y="867.0" type="line"/>
      <point x="1174.0" y="897.0" type="line"/>
      <point x="1174.0" y="970.0" type="line"/>
      <point x="1672.0" y="970.0" type="line"/>
      <point x="1672.0" y="897.0" type="line"/>
      <point x="1482.0" y="867.0" type="line"/>
    </contour>
    <contour>
      <point x="824.0" y="489.0" type="line"/>
      <point x="1178.0" y="806.0" type="line"/>
      <point x="1646.0" y="102.0" type="line"/>
      <point x="1780.0" y="65.0" type="line"/>
      <point x="1780.0" y="0.0" type="line"/>
      <point x="1073.0" y="0.0" type="line"/>
      <point x="1069.0" y="46.0" type="line"/>
      <point x="1101.0" y="89.0" type="line"/>
    </contour>
  </outline>
</glyph>
<glyph name="n" format="2">
  <advance width="2041"/>
  <unicode hex="006E"/>
  <outline>
    <contour>
      <point x="57.0" y="0.0" type="line"/>
      <point x="57.0" y="65.0" type="line"/>
      <point x="229.0" y="100.0" type="line"/>
      <point x="232.0" y="504.0" type="line"/>
      <point x="227.0" y="845.0" type="line"/>
      <point x="47.0" y="880.0" type="line"/>
      <point x="47.0" y="945.0" type="line"/>
      <point x="658.0" y="985.0" type="line"/>
      <point x="682.0" y="974.0" type="line"/>
      <point x="685.0" y="743.0" type="line"/>
      <point x="775.7983870967741" y="832.0"/>
      <point x="1115.8870967741937" y="993.0"/>
      <point x="1339.6370967741937" y="993.0" type="qcurve" smooth="yes"/>
      <point x="1611.9032258064517" y="993.0"/>
      <point x="1865.1693548387098" y="784.0"/>
      <point x="1865.1693548387098" y="628.0" type="qcurve" smooth="yes"/>
      <point x="1865.1693548387098" y="569.0"/>
      <point x="1866.4516129032259" y="563.0"/>
      <point x="1867.4516129032259" y="525.0" type="qcurve" smooth="yes"/>
      <point x="1868.4516129032259" y="99.0" type="line"/>
      <point x="2050.451612903226" y="65.0" type="line"/>
      <point x="2050.451612903226" y="0.0" type="line"/>
      <point x="1248.4516129032259" y="0.0" type="line"/>
      <point x="1248.4516129032259" y="65.0" type="line"/>
      <point x="1385.4516129032259" y="100.0" type="line"/>
      <point x="1391.4516129032259" y="450.0" type="line"/>
      <point x="1391.733870967742" y="561.1774193548387" type="line" smooth="yes"/>
      <point x="1392.016129032258" y="703.1048387096774"/>
      <point x="1261.3145161290322" y="810.0"/>
      <point x="1104.8709677419356" y="810.0" type="qcurve" smooth="yes"/>
      <point x="970.4274193548388" y="810.0"/>
      <point x="759.0806451612902" y="695.0"/>
      <point x="700.0" y="654.0" type="qcurve"/>
      <point x="699.0" y="452.0" type="line"/>
      <point x="703.0" y="100.0" type="line"/>
      <point x="871.0" y="65.0" type="line"/>
      <point x="871.0" y="0.0" type="line"/>
    </contour>
  </outline>
</glyph>
<glyph name="p" format="2">
  <advance width="1980"/>
  <unicode hex="0070"/>
  <outline>
    <contour>
      <point x="52.0" y="-460.0" type="line"/>
      <point x="52.0" y="-400.0" type="line"/>
      <point x="227.0" y="-365.0" type="line"/>
      <point x="229.0" y="389.0" type="line"/>
      <point x="227.0" y="845.0" type="line"/>
      <point x="47.0" y="880.0" type="line"/>
      <point x="47.0" y="943.0" type="line"/>
      <point x="644.0" y="977.0" type="line"/>
      <point x="660.0" y="966.0" type="line"/>
      <point x="689.0" y="829.0" type="line"/>
      <point x="755.0" y="898.0"/>
      <point x="1017.0" y="994.0"/>
      <point x="1236.0" y="994.0" type="qcurve" smooth="yes"/>
      <point x="1499.0" y="994.0"/>
      <point x="1919.0" y="745.0"/>
      <point x="1919.0" y="510.0" type="qcurve" smooth="yes"/>
      <point x="1919.0" y="278.0"/>
      <point x="1479.0" y="-14.0"/>
      <point x="1138.0" y="-14.0" type="qcurve" smooth="yes"/>
      <point x="974.0" y="-14.0"/>
      <point x="762.0" y="50.0"/>
      <point x="698.0" y="86.0" type="qcurve"/>
      <point x="700.0" y="-365.0" type="line"/>
      <point x="933.0" y="-400.0" type="line"/>
      <point x="933.0" y="-460.0" type="line"/>
    </contour>
    <contour>
      <point x="698.0" y="208.0" type="line"/>
      <point x="742.0" y="163.0"/>
      <point x="919.0" y="102.0"/>
      <point x="1038.0" y="102.0" type="qcurve" smooth="yes"/>
      <point x="1208.0" y="102.0"/>
      <point x="1421.0" y="250.0"/>
      <point x="1421.0" y="490.0" type="qcurve" smooth="yes"/>
      <point x="1421.0" y="706.0"/>
      <point x="1224.0" y="840.0"/>
      <point x="1045.0" y="840.0" type="qcurve" smooth="yes"/>
      <point x="918.0" y="840.0"/>
      <point x="746.0" y="752.0"/>
      <point x="697.0" y="710.0" type="qcurve"/>
      <point x="695.0" y="415.0" type="line"/>
    </contour>
  </outline>
</glyph>
<glyph name="q" format="2">
  <advance width="1943"/>
  <unicode hex="0071"/>
  <outline>
    <contour>
      <point x="60.0" y="478.0" type="qcurve" smooth="yes"/>
      <point x="60.0" y="752.0"/>
      <point x="489.0" y="991.0"/>
      <point x="837.0" y="991.0" type="qcurve" smooth="yes"/>
      <point x="985.0" y="991.0"/>
      <point x="1191.0" y="943.0"/>
      <point x="1263.0" y="901.0" type="qcurve"/>
      <point x="1354.0" y="974.0" type="line"/>
      <point x="1896.0" y="940.0" type="line"/>
      <point x="1896.0" y="876.0" type="line"/>
      <point x="1738.0" y="858.0" type="line"/>
      <point x="1735.0" y="430.0" type="line"/>
      <point x="1734.0" y="-365.0" type="line"/>
      <point x="1902.0" y="-400.0" type="line"/>
      <point x="1902.0" y="-460.0" type="line"/>
      <point x="1063.0" y="-460.0" type="line"/>
      <point x="1063.0" y="-400.0" type="line"/>
      <point x="1256.0" y="-367.0" type="line"/>
      <point x="1262.0" y="88.0" type="line"/>
      <point x="1197.0" y="49.0"/>
      <point x="931.0" y="-19.0"/>
      <point x="775.0" y="-19.0" type="qcurve" smooth="yes"/>
      <point x="477.0" y="-19.0"/>
      <point x="60.0" y="211.0"/>
    </contour>
    <contour>
      <point x="550.0" y="479.0" type="qcurve" smooth="yes"/>
      <point x="550.0" y="196.0"/>
      <point x="731.0" y="74.0"/>
      <point x="888.0" y="74.0" type="qcurve" smooth="yes"/>
      <point x="1033.0" y="74.0"/>
      <point x="1229.0" y="161.0"/>
      <point x="1262.0" y="214.0" type="qcurve"/>
      <point x="1267.0" y="776.0" type="line"/>
      <point x="1228.0" y="823.0"/>
      <point x="1029.0" y="883.0"/>
      <point x="948.0" y="883.0" type="qcurve" smooth="yes"/>
      <point x="749.0" y="883.0"/>
      <point x="550.0" y="756.0"/>
    </contour>
  </outline>
</glyph>
<glyph name="r" format="2">
  <advance width="1307"/>
  <unicode hex="0072"/>
  <anchor x="260.0" y="2.0" name="bottom"/>
  <outline>
    <contour>
      <point x="60.0" y="0.0" type="line"/>
      <point x="60.0" y="65.0" type="line"/>
      <point x="229.0" y="100.0" type="line"/>
      <point x="231.0" y="462.0" type="line"/>
      <point x="230.0" y="845.0" type="line"/>
      <point x="47.0" y="880.0" type="line"/>
      <point x="47.0" y="945.0" type="line"/>
      <point x="658.0" y="985.0" type="line"/>
      <point x="682.0" y="974.0" type="line"/>
      <point x="677.0" y="755.0" type="line"/>
      <point x="769.0" y="873.0"/>
      <point x="1046.0" y="975.0"/>
      <point x="1226.0" y="975.0" type="qcurve" smooth="yes"/>
      <point x="1269.0" y="975.0" type="line"/>
      <point x="1269.0" y="655.0" type="line"/>
      <point x="1180.0" y="655.0" type="line"/>
      <point x="1099.0" y="802.0" type="line"/>
      <point x="985.0" y="816.0"/>
      <point x="758.0" y="742.0"/>
      <point x="709.0" y="703.0" type="qcurve"/>
      <point x="707.0" y="462.0" type="line"/>
      <point x="709.0" y="100.0" type="line"/>
      <point x="911.0" y="65.0" type="line"/>
      <point x="911.0" y="0.0" type="line"/>
    </contour>
  </outline>
</glyph>
<glyph name="t" format="2">
  <advance width="1017"/>
  <unicode hex="0074"/>
  <outline>
    <contour>
      <point x="63.0" y="872.0" type="line"/>
      <point x="63.0" y="961.0" type="line"/>
      <point x="217.0" y="979.0"/>
      <point x="418.0" y="1130.0"/>
      <point x="463.0" y="1343.0" type="qcurve"/>
      <point x="654.0" y="1343.0" type="line"/>
      <point x="690.0" y="1263.0" type="line"/>
      <point x="685.0" y="957.0" type="line"/>
      <point x="996.0" y="957.0" type="line"/>
      <point x="996.0" y="869.0" type="line"/>
      <point x="683.0" y="869.0" type="line"/>
      <point x="681.0" y="502.0" type="line"/>
      <point x="689.0" y="259.0" type="line" smooth="yes"/>
      <point x="690.0" y="194.0"/>
      <point x="766.0" y="124.0"/>
      <point x="820.0" y="121.0" type="qcurve" smooth="yes"/>
      <point x="1020.0" y="121.0" type="line"/>
      <point x="1020.0" y="40.0" type="line"/>
      <point x="500.0" y="-15.0" type="line"/>
      <point x="369.0" y="-17.0"/>
      <point x="203.0" y="107.0"/>
      <point x="205.0" y="189.0" type="qcurve" smooth="yes"/>
      <point x="210.0" y="502.0" type="line"/>
      <point x="210.0" y="860.0" type="line"/>
    </contour>
  </outline>
</glyph>
<glyph name="u" format="2">
  <advance width="2003"/>
  <unicode hex="0075"/>
  <outline>
    <contour>
      <point x="22.0" y="880.0" type="line"/>
      <point x="22.0" y="943.0" type="line"/>
      <point x="542.0" y="975.0" type="line"/>
      <point x="634.0" y="975.0" type="line"/>
      <point x="681.0" y="926.0" type="line"/>
      <point x="679.0" y="538.0" type="line"/>
      <point x="679.0" y="384.0" type="line" smooth="yes"/>
      <point x="679.0" y="211.0"/>
      <point x="829.0" y="156.0"/>
      <point x="951.0" y="156.0" type="qcurve" smooth="yes"/>
      <point x="1019.0" y="155.0"/>
      <point x="1235.0" y="191.0"/>
      <point x="1303.0" y="244.0" type="qcurve"/>
      <point x="1305.0" y="488.0" type="line"/>
      <point x="1303.0" y="850.0" type="line"/>
      <point x="1120.0" y="880.0" type="line"/>
      <point x="1120.0" y="943.0" type="line"/>
      <point x="1644.0" y="975.0" type="line"/>
      <point x="1736.0" y="975.0" type="line"/>
      <point x="1784.0" y="926.0" type="line"/>
      <point x="1781.0" y="488.0" type="line"/>
      <point x="1784.0" y="124.0" type="line"/>
      <point x="1964.0" y="94.0" type="line"/>
      <point x="1964.0" y="23.0" type="line"/>
      <point x="1391.0" y="-11.0" type="line"/>
      <point x="1328.0" y="36.0" type="line"/>
      <point x="1303.0" y="129.0" type="line"/>
      <point x="1225.0" y="60.0"/>
      <point x="877.0" y="-12.0"/>
      <point x="703.0" y="-12.0" type="qcurve" smooth="yes"/>
      <point x="437.0" y="-12.0"/>
      <point x="203.0" y="188.0"/>
      <point x="203.0" y="323.0" type="qcurve" smooth="yes"/>
      <point x="203.0" y="401.0"/>
      <point x="203.0" y="585.0"/>
      <point x="202.0" y="566.0" type="qcurve" smooth="yes"/>
      <point x="197.0" y="850.0" type="line"/>
    </contour>
  </outline>
</glyph>
<glyph name="w" format="2">
  <advance width="2468"/>
  <unicode hex="0077"/>
  <outline>
    <contour>
      <point x="2.0" y="897.0" type="line"/>
      <point x="2.0" y="970.0" type="line"/>
      <point x="771.0" y="970.0" type="line"/>
      <point x="771.0" y="897.0" type="line"/>
      <point x="635.0" y="862.0" type="line"/>
      <point x="776.0" y="566.0" type="line"/>
      <point x="933.0" y="220.0" type="line"/>
      <point x="1069.0" y="472.0" type="line"/>
      <point x="1225.0" y="789.0" type="line"/>
      <point x="1296.0" y="736.0" type="line"/>
      <point x="1170.0" y="469.0" type="line"/>
      <point x="974.0" y="2.0" type="line"/>
      <point x="524.0" y="2.0" type="line"/>
      <point x="314.0" y="505.0" type="line"/>
      <point x="151.0" y="862.0" type="line"/>
    </contour>
    <contour>
      <point x="969.0" y="897.0" type="line"/>
      <point x="969.0" y="970.0" type="line"/>
      <point x="1709.0" y="970.0" type="line"/>
      <point x="1709.0" y="897.0" type="line"/>
      <point x="1570.0" y="862.0" type="line"/>
      <point x="1716.0" y="566.0" type="line"/>
      <point x="1858.0" y="230.0" type="line"/>
      <point x="1987.0" y="522.0" type="line"/>
      <point x="2111.0" y="859.0" type="line"/>
      <point x="1938.0" y="897.0" type="line"/>
      <point x="1938.0" y="970.0" type="line"/>
      <point x="2419.0" y="970.0" type="line"/>
      <point x="2419.0" y="897.0" type="line"/>
      <point x="2232.0" y="862.0" type="line"/>
      <point x="2103.0" y="527.0" type="line"/>
      <point x="1914.0" y="2.0" type="line"/>
      <point x="1463.0" y="2.0" type="line"/>
      <point x="1256.0" y="539.0" type="line"/>
      <point x="1108.0" y="862.0" type="line"/>
    </contour>
  </outline>
</glyph>
<glyph name="z" format="2">
  <advance width="1474"/>
  <unicode hex="007A"/>
  <outline>
    <contour>
      <point x="102.0" y="0.0" type="line"/>
      <point x="102.0" y="69.0" type="line"/>
      <point x="830.0" y="892.0" type="line"/>
      <point x="344.0" y="892.0" type="line"/>
      <point x="237.0" y="605.0" type="line"/>
      <point x="159.0" y="605.0" type="line"/>
      <point x="159.0" y="970.0" type="line"/>
      <point x="1363.0" y="970.0" type="line"/>
      <point x="1363.0" y="896.0" type="line"/>
      <point x="675.0" y="78.0" type="line"/>
      <point x="1207.0" y="78.0" type="line"/>
      <point x="1326.0" y="357.0" type="line"/>
      <point x="1403.0" y="357.0" type="line"/>
      <point x="1403.0" y="0.0" type="line"/>
    </contour>
  </outline>
</glyph>
<glyph name="cent" format="2">
  <advance width="1650"/>
  <unicode hex="00A2"/>
  <outline>
    <contour>
      <point x="167.0" y="548.0" type="qcurve" smooth="yes"/>
      <point x="167.0" y="761.0"/>
      <point x="596.0" y="1017.0"/>
      <point x="916.0" y="1017.0" type="qcurve" smooth="yes"/>
      <point x="1101.0" y="1017.0"/>
      <point x="1315.0" y="978.0"/>
      <point x="1372.0" y="958.0" type="qcurve"/>
      <point x="1434.0" y="1009.0" type="line"/>
      <point x="1524.0" y="1012.0" type="line"/>
      <point x="1525.0" y="721.0" type="line"/>
      <point x="1425.0" y="717.0" type="line"/>
      <point x="1376.0" y="822.0" type="line" smooth="yes"/>
      <point x="1331.0" y="913.0"/>
      <point x="1178.0" y="937.0"/>
      <point x="1009.0" y="937.0" type="qcurve" smooth="yes"/>
      <point x="865.0" y="937.0"/>
      <point x="612.0" y="777.0"/>
      <point x="612.0" y="512.0" type="qcurve" smooth="yes"/>
      <point x="612.0" y="338.0"/>
      <point x="821.0" y="175.0"/>
      <point x="995.0" y="175.0" type="qcurve" smooth="yes"/>
      <point x="1130.0" y="175.0"/>
      <point x="1435.0" y="260.0"/>
      <point x="1502.0" y="351.0" type="qcurve"/>
      <point x="1546.0" y="273.0" type="line"/>
      <point x="1468.0" y="159.0"/>
      <point x="1106.0" y="54.0"/>
      <point x="850.0" y="54.0" type="qcurve" smooth="yes"/>
      <point x="574.0" y="54.0"/>
      <point x="167.0" y="327.0"/>
    </contour>
    <contour>
      <point x="961.0" y="-111.0" type="line"/>
      <point x="961.0" y="92.0" type="line"/>
      <point x="956.0" y="92.0" type="line"/>
      <point x="956.0" y="560.0" type="line"/>
      <point x="1026.0" y="518.0" type="line"/>
      <point x="1026.0" y="92.0" type="line"/>
      <point x="1021.0" y="92.0" type="line"/>
      <point x="1021.0" y="-120.0" type="line"/>
    </contour>
    <contour>
      <point x="961.0" y="1170.0" type="line"/>
      <point x="1021.0" y="1169.0" type="line"/>
      <point x="1021.0" y="978.0" type="line"/>
      <point x="1026.0" y="978.0" type="line"/>
      <point x="1026.0" y="518.0" type="line"/>
      <point x="956.0" y="560.0" type="line"/>
      <point x="956.0" y="978.0" type="line"/>
      <point x="961.0" y="978.0" type="line"/>
    </contour>
  </outline>
</glyph>
<glyph name="currency" format="2">
  <advance width="1336"/>
  <unicode hex="00A4"/>
  <outline>
    <contour>
      <point x="255.1048387096774" y="841.2903225806451" type="qcurve" smooth="yes"/>
      <point x="255.1048387096774" y="1010.2903225806451"/>
      <point x="478.10483870967744" y="1248.2903225806451"/>
      <point x="658.1048387096774" y="1248.2903225806451" type="qcurve" smooth="yes"/>
      <point x="841.1048387096774" y="1248.2903225806451"/>
      <point x="1066.1048387096776" y="1026.2903225806451"/>
      <point x="1066.1048387096776" y="846.2903225806451" type="qcurve" smooth="yes"/>
      <point x="1066.1048387096776" y="677.2903225806451"/>
      <point x="845.1048387096774" y="433.2903225806452"/>
      <point x="663.1048387096774" y="433.2903225806452" type="qcurve" smooth="yes"/>
      <point x="482.10483870967744" y="433.2903225806452"/>
      <point x="255.1048387096774" y="659.2903225806451"/>
    </contour>
    <contour>
      <point x="413.10483870967744" y="853.2903225806451" type="qcurve" smooth="yes"/>
      <point x="414.10483870967744" y="739.2903225806451"/>
      <point x="547.1048387096774" y="582.2903225806451"/>
      <point x="656.1048387096774" y="582.2903225806451" type="qcurve" smooth="yes"/>
      <point x="775.1048387096774" y="582.2903225806451"/>
      <point x="901.1048387096774" y="724.2903225806451"/>
      <point x="901.1048387096774" y="844.2903225806451" type="qcurve" smooth="yes"/>
      <point x="901.1048387096774" y="952.2903225806451"/>
      <point x="768.1048387096774" y="1094.2903225806451"/>
      <point x="658.1048387096774" y="1094.2903225806451" type="qcurve" smooth="yes"/>
      <point x="539.1048387096774" y="1094.2903225806451"/>
      <point x="412.10483870967744" y="965.2903225806451"/>
    </contour>
    <contour>
      <point x="378.10483870967744" y="1123.2903225806451" type="line"/>
      <point x="131.1048387096774" y="1346.2903225806451" type="line"/>
      <point x="187.92741935483872" y="1396.1129032258063" type="line"/>
      <point x="421.9274193548387" y="1159.1129032258063" type="line"/>
    </contour>
    <contour>
      <point x="955.1048387096774" y="1103.2903225806451" type="line"/>
      <point x="911.2822580645161" y="1139.1129032258063" type="line"/>
      <point x="1155.282258064516" y="1396.1129032258063" type="line"/>
      <point x="1212.1048387096773" y="1346.2903225806451" type="line"/>
    </contour>
    <contour>
      <point x="388.10483870967744" y="560.2903225806451" type="line"/>
      <point x="441.9274193548387" y="524.4677419354839" type="line"/>
      <point x="197.92741935483872" y="268.4677419354839" type="line"/>
      <point x="131.1048387096774" y="317.2903225806452" type="line"/>
    </contour>
    <contour>
      <point x="945.1048387096774" y="570.2903225806451" type="line"/>
      <point x="1212.1048387096773" y="317.2903225806452" type="line"/>
      <point x="1155.282258064516" y="268.4677419354839" type="line"/>
      <point x="901.2822580645161" y="534.4677419354839" type="line"/>
    </contour>
  </outline>
</glyph>
<glyph name="brokenbar" format="2">
  <advance width="666"/>
  <unicode hex="00A6"/>
  <outline>
    <contour>
      <point x="203.0" y="715.0" type="line"/>
      <point x="187.0" y="941.0" type="line"/>
      <point x="189.0" y="1249.0" type="line"/>
      <point x="198.0" y="1544.0" type="line"/>
      <point x="470.0" y="1567.0" type="line"/>
      <point x="478.0" y="1249.0" type="line"/>
      <point x="479.0" y="941.0" type="line"/>
      <point x="478.0" y="749.0" type="line"/>
    </contour>
    <contour>
      <point x="201.0" y="-495.0" type="line"/>
      <point x="195.0" y="-57.0" type="line"/>
      <point x="187.0" y="251.0" type="line"/>
      <point x="187.0" y="439.0" type="line"/>
      <point x="462.0" y="465.0" type="line"/>
      <point x="478.0" y="251.0" type="line"/>
      <point x="478.0" y="-57.0" type="line"/>
      <point x="468.0" y="-521.0" type="line"/>
    </contour>
  </outline>
</glyph>
<glyph name="section" format="2">
  <advance width="1465"/>
  <unicode hex="00A7"/>
  <outline>
    <contour>
      <point x="1350.0" y="137.0" type="qcurve" smooth="yes"/>
      <point x="1350.0" y="-44.0"/>
      <point x="1011.0" y="-223.0"/>
      <point x="751.0" y="-223.0" type="qcurve" smooth="yes"/>
      <point x="582.0" y="-223.0"/>
      <point x="333.0" y="-167.0"/>
      <point x="256.0" y="-115.0" type="qcurve"/>
      <point x="194.0" y="-215.0" type="line"/>
      <point x="110.0" y="-215.0" type="line"/>
      <point x="110.0" y="236.0" type="line"/>
      <point x="179.0" y="236.0" type="line"/>
      <point x="196.0" y="179.0" type="line" smooth="yes"/>
      <point x="232.0" y="37.0"/>
      <point x="552.0" y="-144.0"/>
      <point x="718.0" y="-144.0" type="qcurve" smooth="yes"/>
      <point x="891.0" y="-144.0"/>
      <point x="1093.0" y="-32.0"/>
      <point x="1093.0" y="86.0" type="qcurve" smooth="yes"/>
      <point x="1093.0" y="181.0"/>
      <point x="857.0" y="293.0"/>
      <point x="603.0" y="361.0" type="qcurve" smooth="yes"/>
      <point x="331.0" y="436.0"/>
      <point x="98.0" y="593.0"/>
      <point x="98.0" y="735.0" type="qcurve" smooth="yes"/>
      <point x="98.0" y="843.0"/>
      <point x="224.0" y="975.0"/>
      <point x="337.0" y="1010.0" type="qcurve"/>
      <point x="268.0" y="1051.0"/>
      <point x="188.0" y="1165.0"/>
      <point x="190.0" y="1242.0" type="qcurve" smooth="yes"/>
      <point x="193.0" y="1360.0"/>
      <point x="465.0" y="1512.0"/>
      <point x="694.0" y="1512.0" type="qcurve" smooth="yes"/>
      <point x="810.0" y="1512.0"/>
      <point x="1007.0" y="1479.0"/>
      <point x="1067.0" y="1449.0" type="qcurve"/>
      <point x="1088.0" y="1480.0" type="line"/>
      <point x="1147.0" y="1480.0" type="line"/>
      <point x="1147.0" y="1164.0" type="line"/>
      <point x="1078.0" y="1164.0" type="line"/>
      <point x="1056.0" y="1234.0" type="line" smooth="yes"/>
      <point x="1032.0" y="1331.0"/>
      <point x="828.0" y="1441.0"/>
      <point x="705.0" y="1441.0" type="qcurve" smooth="yes"/>
      <point x="604.0" y="1441.0"/>
      <point x="445.0" y="1350.0"/>
      <point x="445.0" y="1302.0" type="qcurve" smooth="yes"/>
      <point x="445.0" y="1242.0"/>
      <point x="602.0" y="1120.0"/>
      <point x="806.0" y="1082.0" type="qcurve" smooth="yes"/>
      <point x="1065.0" y="1030.0"/>
      <point x="1314.0" y="906.0"/>
      <point x="1314.0" y="769.0" type="qcurve" smooth="yes"/>
      <point x="1314.0" y="670.0"/>
      <point x="1133.0" y="517.0"/>
      <point x="995.0" y="493.0" type="qcurve"/>
      <point x="1186.0" y="432.0"/>
      <point x="1350.0" y="266.0"/>
    </contour>
    <contour>
      <point x="280.0" y="816.0" type="qcurve" smooth="yes"/>
      <point x="280.0" y="714.0"/>
      <point x="591.0" y="600.0"/>
      <point x="812.0" y="542.0" type="qcurve"/>
      <point x="928.0" y="544.0"/>
      <point x="1097.0" y="618.0"/>
      <point x="1097.0" y="683.0" type="qcurve" smooth="yes"/>
      <point x="1097.0" y="760.0"/>
      <point x="935.0" y="822.0"/>
      <point x="669.0" y="894.0" type="qcurve" smooth="yes"/>
      <point x="631.0" y="904.0"/>
      <point x="456.0" y="964.0"/>
      <point x="427.0" y="973.0" type="qcurve"/>
      <point x="376.0" y="951.0"/>
      <point x="280.0" y="870.0"/>
    </contour>
  </outline>
</glyph>
<glyph name="ordfeminine" format="2">
  <advance width="1481"/>
  <unicode hex="00AA"/>
  <outline>
    <contour>
      <point x="126.0" y="932.0" type="qcurve" smooth="yes"/>
      <point x="126.0" y="1060.0"/>
      <point x="467.0" y="1166.0"/>
      <point x="898.0" y="1179.0" type="qcurve"/>
      <point x="905.0" y="1129.0" type="line"/>
      <point x="747.0" y="1125.0"/>
      <point x="483.0" y="1033.0"/>
      <point x="487.0" y="943.0" type="qcurve" smooth="yes"/>
      <point x="490.0" y="886.0"/>
      <point x="569.0" y="831.0"/>
      <point x="618.0" y="831.0" type="qcurve" smooth="yes"/>
      <point x="727.0" y="831.0"/>
      <point x="859.0" y="870.0"/>
      <point x="888.0" y="900.0" type="qcurve"/>
      <point x="890.0" y="1229.0" type="line" smooth="yes"/>
      <point x="891.0" y="1316.0"/>
      <point x="718.0" y="1434.0"/>
      <point x="595.0" y="1434.0" type="qcurve" smooth="yes"/>
      <point x="551.0" y="1434.0"/>
      <point x="420.0" y="1417.0"/>
      <point x="408.0" y="1402.0" type="qcurve"/>
      <point x="418.0" y="1395.0"/>
      <point x="441.0" y="1351.0"/>
      <point x="441.0" y="1318.0" type="qcurve" smooth="yes"/>
      <point x="432.0" y="1279.0"/>
      <point x="379.0" y="1238.0"/>
      <point x="331.0" y="1234.0" type="qcurve" smooth="yes"/>
      <point x="275.0" y="1230.0"/>
      <point x="198.0" y="1258.0"/>
      <point x="198.0" y="1290.0" type="qcurve" smooth="yes"/>
      <point x="198.0" y="1395.0"/>
      <point x="453.0" y="1512.0"/>
      <point x="720.0" y="1512.0" type="qcurve" smooth="yes"/>
      <point x="998.0" y="1512.0"/>
      <point x="1269.0" y="1368.0"/>
      <point x="1262.0" y="1225.0" type="qcurve" smooth="yes"/>
      <point x="1259.0" y="828.0" type="line"/>
      <point x="1405.0" y="802.0" type="line"/>
      <point x="1405.0" y="729.0" type="line"/>
      <point x="913.0" y="729.0" type="line"/>
      <point x="883.0" y="736.0" type="line"/>
      <point x="876.0" y="850.0" type="line"/>
      <point x="834.0" y="794.0"/>
      <point x="650.0" y="719.0"/>
      <point x="523.0" y="719.0" type="qcurve" smooth="yes"/>
      <point x="288.0" y="719.0"/>
      <point x="126.0" y="798.0"/>
    </contour>
  </outline>
</glyph>
<glyph name="registered" format="2">
  <advance width="1973"/>
  <unicode hex="00AE"/>
  <outline>
    <contour>
      <point x="78.0" y="667.0" type="qcurve" smooth="yes"/>
      <point x="78.0" y="1023.0"/>
      <point x="582.0" y="1514.0"/>
      <point x="979.0" y="1514.0" type="qcurve" smooth="yes"/>
      <point x="1374.0" y="1514.0"/>
      <point x="1895.0" y="1048.0"/>
      <point x="1895.0" y="688.0" type="qcurve" smooth="yes"/>
      <point x="1895.0" y="293.0"/>
      <point x="1392.0" y="-198.0"/>
      <point x="1001.0" y="-198.0" type="qcurve" smooth="yes"/>
      <point x="598.0" y="-198.0"/>
      <point x="78.0" y="281.0"/>
    </contour>
    <contour>
      <point x="169.0" y="662.0" type="qcurve" smooth="yes"/>
      <point x="169.0" y="319.0"/>
      <point x="633.0" y="-104.0"/>
      <point x="991.0" y="-104.0" type="qcurve" smooth="yes"/>
      <point x="1342.0" y="-104.0"/>
      <point x="1804.0" y="323.0"/>
      <point x="1804.0" y="679.0" type="qcurve" smooth="yes"/>
      <point x="1804.0" y="986.0"/>
      <point x="1349.0" y="1420.0"/>
      <point x="985.0" y="1420.0" type="qcurve" smooth="yes"/>
      <point x="647.0" y="1420.0"/>
      <point x="169.0" y="978.0"/>
    </contour>
    <contour>
      <point x="638.0" y="262.0" type="line"/>
      <point x="639.0" y="288.0" type="line"/>
      <point x="714.0" y="308.0" type="line"/>
      <point x="722.0" y="701.0" type="line"/>
      <point x="711.0" y="1014.0" type="line"/>
      <point x="638.0" y="1036.0" type="line"/>
      <point x="640.0" y="1092.0" type="line"/>
      <point x="1082.0" y="1092.0" type="line" smooth="yes"/>
      <point x="1208.0" y="1092.0"/>
      <point x="1361.0" y="970.0"/>
      <point x="1361.0" y="858.0" type="qcurve" smooth="yes"/>
      <point x="1361.0" y="733.0"/>
      <point x="1181.0" y="604.0"/>
      <point x="1080.0" y="604.0" type="qcurve" smooth="yes"/>
      <point x="1039.0" y="604.0"/>
      <point x="907.0" y="611.0"/>
      <point x="887.0" y="611.0" type="qcurve"/>
      <point x="885.0" y="671.0" type="line"/>
      <point x="1000.0" y="671.0" type="line" smooth="yes"/>
      <point x="1097.0" y="671.0"/>
      <point x="1164.0" y="765.0"/>
      <point x="1164.0" y="860.0" type="qcurve" smooth="yes"/>
      <point x="1164.0" y="952.0"/>
      <point x="1101.0" y="1024.0"/>
      <point x="1017.0" y="1024.0" type="qcurve" smooth="yes"/>
      <point x="932.0" y="1024.0" type="line"/>
      <point x="915.0" y="1009.0" type="line"/>
      <point x="907.0" y="681.0" type="line"/>
      <point x="916.0" y="308.0" type="line"/>
      <point x="992.0" y="288.0" type="line"/>
      <point x="992.0" y="262.0" type="line"/>
    </contour>
    <contour>
      <point x="1006.0" y="652.0" type="line"/>
      <point x="1197.0" y="675.0" type="line"/>
      <point x="1363.0" y="393.0" type="line" smooth="yes"/>
      <point x="1398.0" y="328.0"/>
      <point x="1448.0" y="292.0"/>
      <point x="1481.0" y="292.0" type="qcurve"/>
      <point x="1479.0" y="262.0" type="line"/>
      <point x="1247.0" y="262.0" type="line"/>
      <point x="1214.0" y="273.0" type="line"/>
    </contour>
  </outline>
</glyph>
<glyph name="twosuperior" format="2">
  <advance width="943"/>
  <unicode hex="00B2"/>
  <outline>
    <contour>
      <point x="104.0" y="768.0" type="line"/>
      <point x="108.0" y="829.0" type="line"/>
      <point x="127.28225806451613" y="910.0241935483871"/>
      <point x="291.0" y="1050.0"/>
      <point x="400.0" y="1100.0" type="qcurve" smooth="yes"/>
      <point x="456.0" y="1119.0"/>
      <point x="561.1532258064516" y="1213.0"/>
      <point x="564.0" y="1294.0" type="qcurve" smooth="yes"/>
      <point x="567.8467741935484" y="1359.4354838709678"/>
      <point x="487.0" y="1440.0"/>
      <point x="392.0" y="1440.0" type="qcurve" smooth="yes"/>
      <point x="334.0" y="1440.0"/>
      <point x="194.0" y="1366.0"/>
      <point x="151.0" y="1297.0" type="qcurve"/>
      <point x="148.0" y="1355.0" type="line"/>
      <point x="191.0" y="1419.0"/>
      <point x="406.0" y="1520.0"/>
      <point x="500.0" y="1520.0" type="qcurve" smooth="yes"/>
      <point x="706.0" y="1520.0"/>
      <point x="823.0" y="1418.0"/>
      <point x="826.0" y="1338.0" type="qcurve" smooth="yes"/>
      <point x="829.0" y="1235.0"/>
      <point x="712.3306451612902" y="1127.5645161290322"/>
      <point x="490.3306451612903" y="1046.717741935484" type="qcurve" smooth="yes"/>
      <point x="315.94354838709677" y="993.6129032258065"/>
      <point x="253.51612903225808" y="939.0483870967741"/>
      <point x="255.6451612903226" y="934.0" type="qcurve"/>
      <point x="263.64516129032256" y="957.0" type="line"/>
      <point x="843.0" y="956.0" type="line"/>
      <point x="843.0" y="768.0" type="line"/>
    </contour>
  </outline>
</glyph>
<glyph name="acute" format="2">
  <advance width="896"/>
  <unicode hex="00B4"/>
  <outline>
    <contour>
      <point x="803.0" y="1336.0" type="qcurve" smooth="yes"/>
      <point x="803.0" y="1333.0"/>
      <point x="758.0" y="1241.0"/>
      <point x="724.0" y="1225.0" type="qcurve" smooth="yes"/>
      <point x="374.0" y="1009.0" type="line"/>
      <point x="350.0" y="1037.0" type="line"/>
      <point x="585.0" y="1359.0" type="line" smooth="yes"/>
      <point x="614.0" y="1401.0"/>
      <point x="677.0" y="1442.0"/>
      <point x="709.0" y="1442.0" type="qcurve" smooth="yes"/>
      <point x="756.0" y="1442.0"/>
      <point x="803.0" y="1360.0"/>
    </contour>
  </outline>
</glyph>
<glyph name="paragraph" format="2">
  <advance width="1363"/>
  <unicode hex="00B6"/>
  <outline>
    <contour>
      <point x="1364.0" y="55.0" type="line"/>
      <point x="1364.0" y="0.0" type="line"/>
      <point x="370.0" y="0.0" type="line"/>
      <point x="370.0" y="56.0" type="line"/>
      <point x="1018.0" y="85.0" type="line"/>
      <point x="1020.0" y="697.0" type="line"/>
      <point x="961.0" y="691.0"/>
      <point x="671.0" y="683.0"/>
      <point x="532.0" y="683.0" type="qcurve" smooth="yes"/>
      <point x="339.0" y="683.0"/>
      <point x="105.0" y="872.0"/>
      <point x="105.0" y="1078.0" type="qcurve" smooth="yes"/>
      <point x="105.0" y="1259.0"/>
      <point x="337.0" y="1500.0"/>
      <point x="539.0" y="1500.0" type="qcurve" smooth="yes"/>
      <point x="1307.0" y="1500.0" type="line"/>
      <point x="1307.0" y="1437.0" type="line"/>
      <point x="1136.0" y="1403.0" type="line"/>
      <point x="1134.0" y="754.0" type="line"/>
      <point x="1136.0" y="77.0" type="line"/>
    </contour>
    <contour>
      <point x="675.0" y="44.0" type="line"/>
      <point x="568.0" y="44.0" type="line"/>
      <point x="570.0" y="717.0" type="line"/>
      <point x="673.0" y="714.0" type="line"/>
    </contour>
  </outline>
</glyph>
<glyph name="guillemetright" format="2">
  <advance width="1810"/>
  <unicode hex="00BB"/>
  <outline>
    <contour>
      <point x="1765.0" y="565.0" type="line"/>
      <point x="1615.0" y="469.0"/>
      <point x="955.0" y="133.0"/>
      <point x="941.0" y="147.0" type="qcurve" smooth="yes"/>
      <point x="899.0" y="146.0"/>
      <point x="867.0" y="254.0"/>
      <point x="908.0" y="281.0" type="qcurve" smooth="yes"/>
      <point x="835.0" y="232.0"/>
      <point x="1478.0" y="594.0"/>
      <point x="1492.0" y="605.0" type="qcurve"/>
      <point x="1480.0" y="617.0"/>
      <point x="1095.0" y="799.0"/>
      <point x="926.0" y="901.0" type="qcurve" smooth="yes"/>
      <point x="880.0" y="928.0"/>
      <point x="955.0" y="1055.0"/>
      <point x="993.0" y="1020.0" type="qcurve" smooth="yes"/>
      <point x="1076.0" y="959.0"/>
      <point x="1840.0" y="578.0"/>
      <point x="1764.0" y="626.0" type="qcurve"/>
    </contour>
    <contour>
      <point x="1015.0" y="556.0" type="line"/>
      <point x="865.0" y="460.0"/>
      <point x="206.0" y="136.0"/>
      <point x="191.0" y="149.0" type="qcurve" smooth="yes"/>
      <point x="149.0" y="150.0"/>
      <point x="110.0" y="253.0"/>
      <point x="154.0" y="281.0" type="qcurve" smooth="yes"/>
      <point x="77.0" y="225.0"/>
      <point x="700.0" y="587.0"/>
      <point x="722.0" y="606.0" type="qcurve"/>
      <point x="708.0" y="618.0"/>
      <point x="322.0" y="814.0"/>
      <point x="172.0" y="900.0" type="qcurve" smooth="yes"/>
      <point x="128.0" y="925.0"/>
      <point x="201.0" y="1058.0"/>
      <point x="240.0" y="1021.0" type="qcurve" smooth="yes"/>
      <point x="325.0" y="965.0"/>
      <point x="1088.0" y="588.0"/>
      <point x="1013.0" y="636.0" type="qcurve"/>
    </contour>
  </outline>
</glyph>
<glyph name="questiondown" format="2">
  <advance width="1252"/>
  <unicode hex="00BF"/>
  <outline>
    <contour>
      <point x="1080.0" y="1128.0" type="qcurve" smooth="yes"/>
      <point x="1080.0" y="1057.0"/>
      <point x="972.0" y="957.0"/>
      <point x="886.0" y="957.0" type="qcurve" smooth="yes"/>
      <point x="800.0" y="957.0"/>
      <point x="693.0" y="1057.0"/>
      <point x="693.0" y="1128.0" type="qcurve" smooth="yes"/>
      <point x="693.0" y="1201.0"/>
      <point x="800.0" y="1302.0"/>
      <point x="886.0" y="1302.0" type="qcurve" smooth="yes"/>
      <point x="972.0" y="1302.0"/>
      <point x="1080.0" y="1201.0"/>
    </contour>
    <contour>
      <point x="1246.0" y="50.0" type="qcurve" smooth="yes"/>
      <point x="1246.0" y="-55.0"/>
      <point x="973.0" y="-253.0"/>
      <point x="701.0" y="-253.0" type="qcurve" smooth="yes"/>
      <point x="418.0" y="-253.0"/>
      <point x="95.0" y="-69.0"/>
      <point x="95.0" y="94.0" type="qcurve" smooth="yes"/>
      <point x="95.0" y="227.0"/>
      <point x="226.0" y="425.0"/>
      <point x="487.0" y="542.0" type="qcurve" smooth="yes"/>
      <point x="585.0" y="591.0"/>
      <point x="832.0" y="682.0"/>
      <point x="832.0" y="809.0" type="qcurve" smooth="yes"/>
      <point x="832.0" y="818.0" type="line"/>
      <point x="924.0" y="818.0" type="line"/>
      <point x="930.0" y="699.0" type="line" smooth="yes"/>
      <point x="945.0" y="558.0"/>
      <point x="787.0" y="384.0"/>
      <point x="701.0" y="331.0" type="qcurve" smooth="yes"/>
      <point x="648.0" y="302.0"/>
      <point x="517.0" y="124.0"/>
      <point x="517.0" y="1.0" type="qcurve" smooth="yes"/>
      <point x="517.0" y="-100.0"/>
      <point x="654.0" y="-140.0"/>
      <point x="752.0" y="-140.0" type="qcurve" smooth="yes"/>
      <point x="918.0" y="-140.0"/>
      <point x="1101.0" y="-57.0"/>
      <point x="1101.0" y="11.0" type="qcurve" smooth="yes"/>
      <point x="1101.0" y="23.0"/>
      <point x="990.0" y="89.0"/>
      <point x="991.0" y="145.0" type="qcurve" smooth="yes"/>
      <point x="993.0" y="187.0"/>
      <point x="1042.0" y="247.0"/>
      <point x="1101.0" y="247.0" type="qcurve" smooth="yes"/>
      <point x="1163.0" y="247.0"/>
      <point x="1246.0" y="152.0"/>
    </contour>
  </outline>
</glyph>
<glyph name="AE" format="2">
  <advance width="2836"/>
  <unicode hex="00C6"/>
  <outline>
    <contour>
      <point x="83.0" y="0.0" type="line"/>
      <point x="83.0" y="56.0" type="line"/>
      <point x="307.0" y="89.0" type="line"/>
      <point x="607.0" y="557.0" type="line"/>
      <point x="1157.0" y="1409.0" type="line"/>
      <point x="970.0" y="1445.0" type="line"/>
      <point x="970.0" y="1500.0" type="line"/>
      <point x="2700.0" y="1500.0" type="line"/>
      <point x="2700.0" y="1167.0" type="line"/>
      <point x="2610.0" y="1167.0" type="line"/>
      <point x="2489.0" y="1430.0" type="line"/>
      <point x="1910.0" y="1430.0" type="line"/>
      <point x="1851.0" y="1408.0" type="line"/>
      <point x="1848.0" y="784.0" type="line"/>
      <point x="1851.0" y="113.0" type="line"/>
      <point x="1910.0" y="85.0" type="line"/>
      <point x="2553.0" y="85.0" type="line"/>
      <point x="2713.0" y="393.0" type="line"/>
      <point x="2801.0" y="393.0" type="line"/>
      <point x="2761.0" y="0.0" type="line"/>
      <point x="1203.0" y="0.0" type="line"/>
      <point x="1203.0" y="55.0" type="line"/>
      <point x="1361.0" y="86.0" type="line"/>
      <point x="1363.0" y="784.0" type="line"/>
      <point x="1361.0" y="1435.0" type="line"/>
      <point x="1331.0" y="1456.0" type="line"/>
      <point x="736.0" y="548.0" type="line"/>
      <point x="454.0" y="90.0" type="line"/>
      <point x="662.0" y="56.0" type="line"/>
      <point x="662.0" y="0.0" type="line"/>
    </contour>
    <contour>
      <point x="765.0" y="600.0" type="line"/>
      <point x="801.0" y="666.0" type="line"/>
      <point x="1155.0" y="664.0" type="line"/>
      <point x="1155.0" y="602.0" type="line"/>
    </contour>
    <contour>
      <point x="1155.0" y="664.0" type="line"/>
      <point x="1407.0" y="668.0" type="line"/>
      <point x="1409.0" y="602.0" type="line"/>
      <point x="1155.0" y="602.0" type="line"/>
    </contour>
    <contour>
      <point x="1621.0" y="731.0" type="line"/>
      <point x="1619.0" y="829.0" type="line"/>
      <point x="2442.0" y="831.0" type="line"/>
      <point x="2515.0" y="988.0" type="line"/>
      <point x="2572.0" y="988.0" type="line"/>
      <point x="2572.0" y="577.0" type="line"/>
      <point x="2515.0" y="577.0" type="line"/>
      <point x="2442.0" y="741.0" type="line"/>
    </contour>
  </outline>
</glyph>
<glyph name="ae" format="2">
  <advance width="2465"/>
  <unicode hex="00E6"/>
  <outline>
    <contour>
      <point x="75.0" y="236.0" type="qcurve" smooth="yes"/>
      <point x="75.0" y="403.0"/>
      <point x="536.0" y="548.0"/>
      <point x="1043.0" y="573.0" type="qcurve"/>
      <point x="1053.0" y="513.0" type="line"/>
      <point x="823.0" y="492.0"/>
      <point x="527.0" y="368.0"/>
      <point x="530.0" y="293.0" type="qcurve" smooth="yes"/>
      <point x="532.0" y="182.0"/>
      <point x="679.0" y="129.0"/>
      <point x="766.0" y="129.0" type="qcurve" smooth="yes"/>
      <point x="860.0" y="129.0"/>
      <point x="983.0" y="196.0"/>
      <point x="1043.0" y="253.0" type="qcurve"/>
      <point x="1022.0" y="315.0"/>
      <point x="1032.0" y="326.0"/>
      <point x="1032.0" y="411.0" type="qcurve" smooth="yes"/>
      <point x="1029.0" y="538.0" type="line" smooth="yes"/>
      <point x="1026.0" y="730.0"/>
      <point x="812.0" y="890.0"/>
      <point x="649.0" y="890.0" type="qcurve" smooth="yes"/>
      <point x="593.0" y="890.0"/>
      <point x="451.0" y="866.0"/>
      <point x="435.0" y="851.0" type="qcurve"/>
      <point x="473.0" y="838.0"/>
      <point x="514.0" y="780.0"/>
      <point x="511.0" y="731.0" type="qcurve" smooth="yes"/>
      <point x="503.0" y="675.0"/>
      <point x="427.0" y="619.0"/>
      <point x="358.0" y="614.0" type="qcurve" smooth="yes"/>
      <point x="286.0" y="609.0"/>
      <point x="178.0" y="656.0"/>
      <point x="178.0" y="724.0" type="qcurve" smooth="yes"/>
      <point x="178.0" y="826.0"/>
      <point x="483.0" y="999.0"/>
      <point x="809.0" y="999.0" type="qcurve" smooth="yes"/>
      <point x="953.0" y="999.0"/>
      <point x="1211.0" y="966.0"/>
      <point x="1285.0" y="891.0" type="qcurve"/>
      <point x="1292.0" y="891.0" type="line"/>
      <point x="1386.0" y="949.0"/>
      <point x="1617.0" y="1005.0"/>
      <point x="1785.0" y="1005.0" type="qcurve" smooth="yes"/>
      <point x="2043.0" y="1005.0"/>
      <point x="2465.0" y="761.0"/>
      <point x="2479.0" y="565.0" type="qcurve"/>
      <point x="2480.0" y="499.0" type="line"/>
      <point x="1402.0" y="499.0" type="line"/>
      <point x="1402.0" y="564.0" type="line"/>
      <point x="2059.0" y="564.0" type="line"/>
      <point x="2058.0" y="729.0"/>
      <point x="1914.0" y="937.0"/>
      <point x="1790.0" y="937.0" type="qcurve" smooth="yes"/>
      <point x="1688.0" y="937.0"/>
      <point x="1488.0" y="796.0"/>
      <point x="1488.0" y="525.0" type="qcurve" smooth="yes"/>
      <point x="1489.0" y="246.0"/>
      <point x="1672.0" y="87.0"/>
      <point x="1849.0" y="87.0" type="qcurve" smooth="yes"/>
      <point x="2034.0" y="87.0"/>
      <point x="2324.0" y="229.0"/>
      <point x="2415.0" y="313.0" type="qcurve"/>
      <point x="2453.0" y="234.0" type="line"/>
      <point x="2384.0" y="138.0"/>
      <point x="1980.0" y="-35.0"/>
      <point x="1733.0" y="-35.0" type="qcurve" smooth="yes"/>
      <point x="1592.0" y="-35.0"/>
      <point x="1226.0" y="5.0"/>
      <point x="1087.0" y="154.0" type="qcurve"/>
      <point x="974.0" y="48.0"/>
      <point x="747.0" y="-21.0"/>
      <point x="573.0" y="-21.0" type="qcurve" smooth="yes"/>
      <point x="312.0" y="-21.0"/>
      <point x="75.0" y="77.0"/>
    </contour>
  </outline>
</glyph>
<glyph name="eth" format="2">
  <advance width="1799"/>
  <unicode hex="00F0"/>
  <outline>
    <contour>
      <point x="63.0" y="470.0" type="qcurve" smooth="yes"/>
      <point x="63.0" y="714.0"/>
      <point x="502.0" y="964.0"/>
      <point x="875.0" y="964.0" type="qcurve" smooth="yes"/>
      <point x="1159.0" y="964.0"/>
      <point x="1419.0" y="675.0"/>
      <point x="1425.0" y="462.0" type="qcurve"/>
      <point x="1248.0" y="466.0" type="line"/>
      <point x="1202.3548387096776" y="726.5403225806451"/>
      <point x="988.9435483870968" y="890.0"/>
      <point x="885.0" y="893.0" type="qcurve" smooth="yes"/>
      <point x="756.0" y="896.0"/>
      <point x="558.0" y="751.0"/>
      <point x="558.0" y="484.0" type="qcurve" smooth="yes"/>
      <point x="558.0" y="194.0"/>
      <point x="737.0" y="29.0"/>
      <point x="874.0" y="27.0" type="qcurve" smooth="yes"/>
      <point x="1035.0" y="25.0"/>
      <point x="1238.0" y="210.0"/>
      <point x="1238.0" y="461.0" type="qcurve" smooth="yes"/>
      <point x="1238.0" y="850.0"/>
      <point x="830.0" y="1395.0"/>
      <point x="436.0" y="1494.0" type="qcurve"/>
      <point x="524.0" y="1550.0" type="line"/>
      <point x="1176.0" y="1410.0"/>
      <point x="1713.4112903225805" y="883.0"/>
      <point x="1713.4112903225805" y="589.0" type="qcurve" smooth="yes"/>
      <point x="1713.4112903225805" y="268.7983870967742"/>
      <point x="1243.282258064516" y="-33.0"/>
      <point x="849.2822580645161" y="-33.0" type="qcurve" smooth="yes"/>
      <point x="517.2822580645161" y="-33.0"/>
      <point x="63.0" y="214.0"/>
    </contour>
    <contour>
      <point x="479.8225806451613" y="1165.0" type="line"/>
      <point x="1410.8225806451615" y="1501.0" type="line"/>
      <point x="1437.8225806451615" y="1398.0" type="line"/>
      <point x="507.8225806451613" y="1060.0" type="line"/>
    </contour>
  </outline>
</glyph>
<glyph name="idotless" format="2">
  <advance width="887"/>
  <unicode hex="0131"/>
  <outline>
    <contour>
      <point x="79.0" y="0.0" type="line"/>
      <point x="79.0" y="65.0" type="line"/>
      <point x="230.0" y="100.0" type="line"/>
      <point x="232.0" y="502.0" type="line"/>
      <point x="231.0" y="845.0" type="line"/>
      <point x="78.0" y="880.0" type="line"/>
      <point x="78.0" y="943.0" type="line"/>
      <point x="608.0" y="979.0" type="line"/>
      <point x="653.0" y="979.0" type="line"/>
      <point x="708.0" y="930.0" type="line"/>
      <point x="701.0" y="502.0" type="line"/>
      <point x="703.0" y="100.0" type="line"/>
      <point x="842.0" y="65.0" type="line"/>
      <point x="842.0" y="0.0" type="line"/>
    </contour>
  </outline>
</glyph>
<glyph name="OE" format="2">
  <advance width="2965"/>
  <unicode hex="0152"/>
  <outline>
    <contour>
      <point x="65.0" y="747.0" type="qcurve" smooth="yes"/>
      <point x="65.0" y="1106.0"/>
      <point x="585.0" y="1522.0"/>
      <point x="1010.0" y="1522.0" type="qcurve" smooth="yes"/>
      <point x="1111.0" y="1522.0"/>
      <point x="1225.0" y="1513.0"/>
      <point x="1280.0" y="1500.0" type="qcurve" smooth="yes"/>
      <point x="2829.0" y="1500.0" type="line"/>
      <point x="2829.0" y="1167.0" type="line"/>
      <point x="2739.0" y="1167.0" type="line"/>
      <point x="2618.0" y="1430.0" type="line"/>
      <point x="1989.0" y="1430.0" type="line"/>
      <point x="1920.0" y="1408.0" type="line"/>
      <point x="1917.0" y="784.0" type="line"/>
      <point x="1920.0" y="113.0" type="line"/>
      <point x="1989.0" y="85.0" type="line"/>
      <point x="2682.0" y="85.0" type="line"/>
      <point x="2842.0" y="393.0" type="line"/>
      <point x="2930.0" y="393.0" type="line"/>
      <point x="2890.0" y="0.0" type="line"/>
      <point x="1356.0" y="0.0" type="line" smooth="yes"/>
      <point x="1230.0" y="-12.0"/>
      <point x="1046.0" y="-19.0"/>
      <point x="1004.0" y="-19.0" type="qcurve" smooth="yes"/>
      <point x="572.0" y="-19.0"/>
      <point x="65.0" y="395.0"/>
    </contour>
    <contour>
      <point x="597.0" y="778.0" type="qcurve" smooth="yes"/>
      <point x="597.0" y="352.0"/>
      <point x="850.0" y="57.0"/>
      <point x="1082.0" y="57.0" type="qcurve" smooth="yes"/>
      <point x="1296.0" y="57.0"/>
      <point x="1414.0" y="106.0"/>
      <point x="1435.0" y="151.0" type="qcurve"/>
      <point x="1435.0" y="723.0" type="line"/>
      <point x="1423.0" y="1339.0" type="line"/>
      <point x="1384.0" y="1403.0"/>
      <point x="1192.0" y="1450.0"/>
      <point x="1036.0" y="1450.0" type="qcurve" smooth="yes"/>
      <point x="847.0" y="1450.0"/>
      <point x="597.0" y="1178.0"/>
    </contour>
    <contour>
      <point x="1688.0" y="742.0" type="line"/>
      <point x="1688.0" y="829.0" type="line"/>
      <point x="2571.0" y="831.0" type="line"/>
      <point x="2644.0" y="988.0" type="line"/>
      <point x="2701.0" y="988.0" type="line"/>
      <point x="2701.0" y="577.0" type="line"/>
      <point x="2644.0" y="577.0" type="line"/>
      <point x="2571.0" y="741.0" type="line"/>
    </contour>
  </outline>
</glyph>
<glyph name="oe" format="2">
  <advance width="2581"/>
  <unicode hex="0153"/>
  <outline>
    <contour>
      <point x="62.0" y="485.0" type="qcurve" smooth="yes"/>
      <point x="62.0" y="729.0"/>
      <point x="530.0" y="1005.0"/>
      <point x="886.0" y="1005.0" type="qcurve" smooth="yes"/>
      <point x="1007.0" y="1005.0"/>
      <point x="1241.0" y="993.0"/>
      <point x="1367.0" y="918.0" type="qcurve"/>
      <point x="1356.0" y="918.0" type="line"/>
      <point x="1486.0" y="986.0"/>
      <point x="1773.0" y="1005.0"/>
      <point x="1889.0" y="1005.0" type="qcurve" smooth="yes"/>
      <point x="2160.0" y="1005.0"/>
      <point x="2588.0" y="759.0"/>
      <point x="2595.0" y="555.0" type="qcurve"/>
      <point x="2596.0" y="489.0" type="line"/>
      <point x="1486.0" y="489.0" type="line"/>
      <point x="1486.0" y="554.0" type="line"/>
      <point x="2175.0" y="554.0" type="line"/>
      <point x="2175.0" y="719.0"/>
      <point x="2030.0" y="937.0"/>
      <point x="1917.0" y="937.0" type="qcurve" smooth="yes"/>
      <point x="1824.0" y="937.0"/>
      <point x="1617.0" y="796.0"/>
      <point x="1617.0" y="525.0" type="qcurve" smooth="yes"/>
      <point x="1618.0" y="246.0"/>
      <point x="1796.0" y="97.0"/>
      <point x="1955.0" y="97.0" type="qcurve" smooth="yes"/>
      <point x="2140.0" y="97.0"/>
      <point x="2440.0" y="229.0"/>
      <point x="2531.0" y="313.0" type="qcurve"/>
      <point x="2569.0" y="234.0" type="line"/>
      <point x="2500.0" y="138.0"/>
      <point x="2087.0" y="-35.0"/>
      <point x="1876.0" y="-35.0" type="qcurve" smooth="yes"/>
      <point x="1751.0" y="-35.0"/>
      <point x="1518.0" y="-45.0"/>
      <point x="1397.0" y="30.0" type="qcurve"/>
      <point x="1394.0" y="30.0" type="line"/>
      <point x="1221.0" y="-36.0"/>
      <point x="974.0" y="-34.0"/>
      <point x="857.0" y="-34.0" type="qcurve" smooth="yes"/>
      <point x="536.0" y="-34.0"/>
      <point x="62.0" y="229.0"/>
    </contour>
    <contour>
      <point x="558.0" y="499.0" type="qcurve" smooth="yes"/>
      <point x="559.0" y="209.0"/>
      <point x="721.0" y="24.0"/>
      <point x="860.0" y="24.0" type="qcurve" smooth="yes"/>
      <point x="992.0" y="24.0"/>
      <point x="1163.0" y="181.0"/>
      <point x="1162.0" y="481.0" type="qcurve" smooth="yes"/>
      <point x="1162.0" y="767.0"/>
      <point x="983.0" y="935.0"/>
      <point x="854.0" y="935.0" type="qcurve" smooth="yes"/>
      <point x="714.0" y="935.0"/>
      <point x="558.0" y="776.0"/>
    </contour>
  </outline>
</glyph>
<glyph name="Schwa" format="2">
  <advance width="1977"/>
  <unicode hex="018F"/>
  <outline>
    <contour>
      <point x="121.0" y="1302.0" type="line"/>
      <point x="209.0" y="1370.0"/>
      <point x="625.0" y="1519.0"/>
      <point x="865.0" y="1519.0" type="qcurve" smooth="yes"/>
      <point x="1291.0" y="1519.0"/>
      <point x="1911.0" y="1177.0"/>
      <point x="1911.0" y="693.0" type="qcurve" smooth="yes"/>
      <point x="1911.0" y="277.0"/>
      <point x="1417.0" y="-23.0"/>
      <point x="884.0" y="-23.0" type="qcurve" smooth="yes"/>
      <point x="442.0" y="-23.0"/>
      <point x="18.0" y="338.0"/>
      <point x="10.0" y="686.0" type="qcurve" smooth="yes"/>
      <point x="9.0" y="676.0" type="line"/>
      <point x="1638.0" y="676.0" type="line"/>
      <point x="1638.0" y="619.0" type="line"/>
      <point x="970.0" y="619.0" type="line"/>
      <point x="304.0" y="619.0" type="line"/>
      <point x="304.0" y="681.0" type="line" smooth="yes"/>
      <point x="304.0" y="416.0"/>
      <point x="586.0" y="63.0"/>
      <point x="839.0" y="63.0" type="qcurve" smooth="yes"/>
      <point x="1130.0" y="63.0"/>
      <point x="1381.0" y="229.0"/>
      <point x="1383.0" y="692.0" type="qcurve" smooth="yes"/>
      <point x="1384.0" y="1201.0"/>
      <point x="1132.0" y="1399.0"/>
      <point x="765.0" y="1399.0" type="qcurve" smooth="yes"/>
      <point x="577.0" y="1399.0"/>
      <point x="258.0" y="1298.0"/>
      <point x="156.0" y="1230.0" type="qcurve"/>
    </contour>
  </outline>
</glyph>
<glyph name="florin" format="2">
  <advance width="1112"/>
  <unicode hex="0192"/>
  <outline>
    <contour>
      <point x="759.0" y="193.0" type="line" smooth="yes"/>
      <point x="759.0" y="7.0"/>
      <point x="540.0" y="-209.0"/>
      <point x="333.0" y="-209.0" type="qcurve" smooth="yes"/>
      <point x="215.0" y="-209.0"/>
      <point x="70.0" y="-176.0"/>
      <point x="38.0" y="-155.0" type="qcurve" smooth="yes"/>
      <point x="14.0" y="-140.0" type="line"/>
      <point x="-2.0" y="-68.0" type="line"/>
      <point x="1.0" y="-68.0" type="line" smooth="yes"/>
      <point x="37.0" y="-81.0"/>
      <point x="108.0" y="-92.0"/>
      <point x="145.0" y="-92.0" type="qcurve" smooth="yes"/>
      <point x="177.0" y="-92.0"/>
      <point x="265.0" y="-47.0"/>
      <point x="267.0" y="55.0" type="qcurve" smooth="yes"/>
      <point x="279.0" y="824.0" type="line"/>
      <point x="130.0" y="862.0" type="line"/>
      <point x="140.0" y="927.0" type="line"/>
      <point x="289.0" y="946.0" type="line"/>
      <point x="287.0" y="1105.0" type="line" smooth="yes"/>
      <point x="281.0" y="1299.0"/>
      <point x="498.0" y="1537.0"/>
      <point x="721.0" y="1537.0" type="qcurve" smooth="yes"/>
      <point x="836.0" y="1537.0"/>
      <point x="983.0" y="1508.0"/>
      <point x="1015.0" y="1482.0" type="qcurve" smooth="yes"/>
      <point x="1030.0" y="1469.0" type="line"/>
      <point x="1046.0" y="1397.0" type="line"/>
      <point x="1041.0" y="1398.0" type="line" smooth="yes"/>
      <point x="1015.0" y="1408.0"/>
      <point x="941.0" y="1420.0"/>
      <point x="893.0" y="1420.0" type="qcurve" smooth="yes"/>
      <point x="868.0" y="1420.0"/>
      <point x="785.0" y="1336.0"/>
      <point x="784.0" y="1243.0" type="qcurve" smooth="yes"/>
      <point x="771.0" y="933.0" type="line"/>
      <point x="1033.0" y="933.0" type="line"/>
      <point x="1033.0" y="846.0" type="line"/>
      <point x="771.0" y="850.0" type="line"/>
    </contour>
  </outline>
</glyph>
<glyph name="schwa" format="2">
  <advance width="1541"/>
  <unicode hex="0259"/>
  <outline>
    <contour>
      <point x="1479.0" y="479.0" type="qcurve" smooth="yes"/>
      <point x="1479.0" y="218.0"/>
      <point x="1055.0" y="-35.0"/>
      <point x="715.0" y="-35.0" type="qcurve" smooth="yes"/>
      <point x="418.0" y="-35.0"/>
      <point x="9.0" y="211.0"/>
      <point x="-6.0" y="415.0" type="qcurve"/>
      <point x="-7.0" y="481.0" type="line"/>
      <point x="1087.0" y="481.0" type="line"/>
      <point x="1087.0" y="416.0" type="line"/>
      <point x="414.0" y="416.0" type="line"/>
      <point x="415.0" y="251.0"/>
      <point x="569.0" y="33.0"/>
      <point x="693.0" y="33.0" type="qcurve" smooth="yes"/>
      <point x="795.0" y="33.0"/>
      <point x="998.0" y="174.0"/>
      <point x="998.0" y="445.0" type="qcurve" smooth="yes"/>
      <point x="997.0" y="724.0"/>
      <point x="811.0" y="883.0"/>
      <point x="634.0" y="883.0" type="qcurve" smooth="yes"/>
      <point x="449.0" y="883.0"/>
      <point x="149.0" y="741.0"/>
      <point x="58.0" y="657.0" type="qcurve"/>
      <point x="20.0" y="736.0" type="line"/>
      <point x="89.0" y="832.0"/>
      <point x="481.0" y="1005.0"/>
      <point x="684.0" y="1005.0" type="qcurve" smooth="yes"/>
      <point x="1049.0" y="1005.0"/>
      <point x="1479.0" y="727.0"/>
    </contour>
  </outline>
</glyph>
<glyph name="circumflex" format="2">
  <advance width="896"/>
  <unicode hex="02C6"/>
  <outline>
    <contour>
      <point x="447.0" y="1461.0" type="qcurve" smooth="yes"/>
      <point x="482.0" y="1461.0"/>
      <point x="555.0" y="1408.0"/>
      <point x="603.0" y="1352.0" type="qcurve" smooth="yes"/>
      <point x="815.0" y="1089.0" type="line"/>
      <point x="789.0" y="1058.0" type="line"/>
      <point x="447.0" y="1274.0" type="line"/>
      <point x="105.0" y="1058.0" type="line"/>
      <point x="81.0" y="1088.0" type="line"/>
      <point x="291.0" y="1352.0" type="line" smooth="yes"/>
      <point x="341.0" y="1415.0"/>
      <point x="412.0" y="1461.0"/>
    </contour>
  </outline>
</glyph>
<glyph name="hookabovecomb" format="2">
  <advance width="896"/>
  <unicode hex="0309"/>
  <outline>
    <contour>
      <point x="279.0" y="875.0" type="line"/>
      <point x="279.0" y="1139.0" type="line"/>
      <point x="317.0" y="1176.0" type="line"/>
      <point x="344.0" y="1171.0"/>
      <point x="425.0" y="1163.0"/>
      <point x="457.0" y="1163.0" type="qcurve" smooth="yes"/>
      <point x="527.0" y="1163.0"/>
      <point x="613.0" y="1223.0"/>
      <point x="613.0" y="1272.0" type="qcurve" smooth="yes"/>
      <point x="613.0" y="1321.0"/>
      <point x="497.0" y="1374.0"/>
      <point x="399.0" y="1374.0" type="qcurve" smooth="yes"/>
      <point x="343.0" y="1374.0"/>
      <point x="205.0" y="1346.0"/>
      <point x="134.0" y="1323.0" type="qcurve"/>
      <point x="105.0" y="1385.0" type="line"/>
      <point x="153.0" y="1440.0"/>
      <point x="378.0" y="1497.0"/>
      <point x="469.0" y="1497.0" type="qcurve" smooth="yes"/>
      <point x="653.0" y="1497.0"/>
      <point x="824.0" y="1386.0"/>
      <point x="824.0" y="1280.0" type="qcurve" smooth="yes"/>
      <point x="824.0" y="1182.0"/>
      <point x="636.0" y="1066.0"/>
      <point x="487.0" y="1067.0" type="qcurve" smooth="yes"/>
      <point x="430.0" y="1067.0"/>
      <point x="377.0" y="1067.0"/>
      <point x="351.0" y="1076.0" type="qcurve"/>
      <point x="351.0" y="875.0" type="line"/>
    </contour>
  </outline>
</glyph>
<glyph name="breveinvertedcomb" format="2">
  <advance width="896"/>
  <unicode hex="030F"/>
  <outline>
    <contour>
      <point x="124.0" y="1001.0" type="qcurve"/>
      <point x="78.0" y="1008.0" type="line"/>
      <point x="108.0" y="1125.0"/>
      <point x="274.0" y="1295.0"/>
      <point x="449.0" y="1295.0" type="qcurve"/>
      <point x="616.0" y="1295.0"/>
      <point x="780.0" y="1153.0"/>
      <point x="818.0" y="1011.0" type="qcurve"/>
      <point x="766.0" y="999.0" type="line"/>
      <point x="713.0" y="1080.0"/>
      <point x="555.0" y="1155.0"/>
      <point x="446.0" y="1156.0" type="qcurve"/>
      <point x="325.0" y="1155.0"/>
      <point x="165.0" y="1078.0"/>
    </contour>
  </outline>
</glyph>
<glyph name="horncomb" format="2">
  <advance width="896"/>
  <unicode hex="031B"/>
  <outline>
    <contour>
      <point x="-1.0" y="923.0" type="line"/>
      <point x="116.0" y="896.0"/>
      <point x="317.0" y="867.0"/>
      <point x="352.0" y="867.0" type="qcurve" smooth="yes"/>
      <point x="446.0" y="867.0"/>
      <point x="549.0" y="974.0"/>
      <point x="549.0" y="1040.0" type="qcurve" smooth="yes"/>
      <point x="549.0" y="1072.0"/>
      <point x="537.0" y="1142.0"/>
      <point x="523.0" y="1193.0" type="qcurve"/>
      <point x="622.0" y="1193.0" type="line"/>
      <point x="656.0" y="1136.0"/>
      <point x="692.0" y="1045.0"/>
      <point x="693.0" y="1007.0" type="qcurve" smooth="yes"/>
      <point x="694.0" y="889.0"/>
      <point x="504.0" y="745.0"/>
      <point x="373.0" y="746.0" type="qcurve" smooth="yes"/>
      <point x="329.0" y="747.0"/>
      <point x="55.0" y="783.0"/>
      <point x="-1.0" y="820.0" type="qcurve"/>
    </contour>
  </outline>
</glyph>
<glyph name="commaaccentcomb" format="2">
  <advance width="896"/>
  <unicode hex="0326"/>
  <outline>
    <contour>
      <point x="343.0" y="-510.0" type="line"/>
      <point x="407.0" y="-472.0"/>
      <point x="422.0" y="-438.0"/>
      <point x="442.0" y="-389.0" type="qcurve"/>
      <point x="387.0" y="-390.0"/>
      <point x="338.0" y="-331.0"/>
      <point x="338.0" y="-290.0" type="qcurve" smooth="yes"/>
      <point x="338.0" y="-250.0"/>
      <point x="390.0" y="-195.0"/>
      <point x="439.0" y="-195.0" type="qcurve" smooth="yes"/>
      <point x="490.0" y="-195.0"/>
      <point x="545.0" y="-255.0"/>
      <point x="545.0" y="-302.0" type="qcurve" smooth="yes"/>
      <point x="545.0" y="-350.0"/>
      <point x="460.0" y="-457.0"/>
      <point x="341.0" y="-512.0" type="qcurve"/>
    </contour>
  </outline>
</glyph>
<glyph name="Germandbls" format="2">
  <advance width="2233"/>
  <unicode hex="1E9E"/>
  <outline>
    <contour>
      <point x="334.0" y="697.0" type="line"/>
      <point x="331.0" y="991.0" type="line" smooth="yes"/>
      <point x="327.0" y="1246.0"/>
      <point x="652.0" y="1529.0"/>
      <point x="1078.0" y="1529.0" type="qcurve" smooth="yes"/>
      <point x="1206.0" y="1529.0"/>
      <point x="1582.0" y="1504.0"/>
      <point x="1668.0" y="1490.0" type="qcurve"/>
      <point x="1669.0" y="1390.0" type="line"/>
      <point x="1496.0" y="1390.0"/>
      <point x="1284.0" y="1300.0"/>
      <point x="1284.0" y="1199.0" type="qcurve" smooth="yes"/>
      <point x="1284.0" y="1091.0"/>
      <point x="1433.0" y="974.0"/>
      <point x="1670.0" y="874.0" type="qcurve" smooth="yes"/>
      <point x="1986.0" y="745.0"/>
      <point x="2150.0" y="551.0"/>
      <point x="2150.0" y="392.0" type="qcurve" smooth="yes"/>
      <point x="2150.0" y="215.0"/>
      <point x="1794.0" y="-38.0"/>
      <point x="1437.0" y="-38.0" type="qcurve" smooth="yes"/>
      <point x="1278.0" y="-38.0"/>
      <point x="1130.0" y="26.0"/>
      <point x="1055.0" y="93.0" type="qcurve"/>
      <point x="982.0" y="1.0" type="line"/>
      <point x="918.0" y="1.0" type="line"/>
      <point x="918.0" y="423.0" type="line"/>
      <point x="986.0" y="423.0" type="line"/>
      <point x="1048.0" y="302.0" type="line" smooth="yes"/>
      <point x="1103.0" y="210.0"/>
      <point x="1302.0" y="85.0"/>
      <point x="1461.0" y="85.0" type="qcurve" smooth="yes"/>
      <point x="1623.0" y="85.0"/>
      <point x="1804.0" y="196.0"/>
      <point x="1804.0" y="299.0" type="qcurve" smooth="yes"/>
      <point x="1804.0" y="383.0"/>
      <point x="1529.0" y="518.0"/>
      <point x="1364.0" y="586.0" type="qcurve" smooth="yes"/>
      <point x="1145.0" y="678.0"/>
      <point x="965.0" y="889.0"/>
      <point x="965.0" y="1019.0" type="qcurve" smooth="yes"/>
      <point x="965.0" y="1182.0"/>
      <point x="1224.0" y="1399.0"/>
      <point x="1417.0" y="1421.0" type="qcurve"/>
      <point x="1215.0" y="1438.0" type="line" smooth="yes"/>
      <point x="1026.0" y="1459.0"/>
      <point x="815.0" y="1293.0"/>
      <point x="816.0" y="1082.0" type="qcurve" smooth="yes"/>
      <point x="817.0" y="767.0" type="line"/>
      <point x="820.0" y="-400.0" type="line"/>
      <point x="1082.0" y="-435.0" type="line"/>
      <point x="1082.0" y="-460.0" type="line"/>
      <point x="95.0" y="-460.0" type="line"/>
      <point x="95.0" y="-435.0" type="line"/>
      <point x="331.0" y="-400.0" type="line"/>
    </contour>
  </outline>
</glyph>
<glyph name="emdash" format="2">
  <advance width="2048"/>
  <unicode hex="2014"/>
  <outline>
    <contour>
      <point x="187.0" y="516.0" type="line"/>
      <point x="187.0" y="791.0" type="line"/>
      <point x="1023.0" y="791.0" type="line"/>
      <point x="1861.0" y="784.0" type="line"/>
      <point x="1861.0" y="516.0" type="line"/>
      <point x="1023.0" y="516.0" type="line"/>
    </contour>
  </outline>
</glyph>
<glyph name="horizontalbar" format="2">
  <advance width="1396"/>
  <unicode hex="2015"/>
  <outline>
    <contour>
      <point x="786.0" y="726.0" type="line"/>
      <point x="171.0" y="726.0" type="line"/>
      <point x="184.0" y="788.0" type="line"/>
      <point x="773.0" y="788.0" type="line"/>
      <point x="1286.0" y="788.0" type="line"/>
      <point x="1285.0" y="726.0" type="line"/>
    </contour>
  </outline>
</glyph>
<glyph name="dagger" format="2">
  <advance width="1128"/>
  <unicode hex="2020"/>
  <outline>
    <contour>
      <point x="522.0" y="-480.0" type="line"/>
      <point x="451.0" y="-28.0" type="line"/>
      <point x="504.0" y="350.0" type="line"/>
      <point x="504.0" y="930.0" type="line"/>
      <point x="433.0" y="1438.0" type="line"/>
      <point x="491.0" y="1506.0" type="line"/>
      <point x="611.0" y="1506.0" type="line"/>
      <point x="669.0" y="1438.0" type="line"/>
      <point x="605.0" y="930.0" type="line"/>
      <point x="605.0" y="350.0" type="line"/>
      <point x="657.0" y="-28.0" type="line"/>
      <point x="593.0" y="-480.0" type="line"/>
    </contour>
    <contour>
      <point x="52.0" y="894.0" type="line"/>
      <point x="52.0" y="939.0" type="line"/>
      <point x="555.0" y="972.0" type="line"/>
      <point x="1076.0" y="939.0" type="line"/>
      <point x="1076.0" y="894.0" type="line"/>
      <point x="555.0" y="906.0" type="line"/>
    </contour>
  </outline>
</glyph>
<glyph name="daggerdbl" format="2">
  <advance width="1076"/>
  <unicode hex="2021"/>
  <outline>
    <contour>
      <point x="498.0" y="-480.0" type="line"/>
      <point x="427.0" y="-28.0" type="line"/>
      <point x="480.0" y="350.0" type="line"/>
      <point x="480.0" y="930.0" type="line"/>
      <point x="409.0" y="1438.0" type="line"/>
      <point x="467.0" y="1506.0" type="line"/>
      <point x="587.0" y="1506.0" type="line"/>
      <point x="645.0" y="1438.0" type="line"/>
      <point x="581.0" y="930.0" type="line"/>
      <point x="581.0" y="350.0" type="line"/>
      <point x="633.0" y="-28.0" type="line"/>
      <point x="569.0" y="-480.0" type="line"/>
    </contour>
    <contour>
      <point x="48.0" y="894.0" type="line"/>
      <point x="48.0" y="939.0" type="line"/>
      <point x="531.0" y="972.0" type="line"/>
      <point x="1032.0" y="939.0" type="line"/>
      <point x="1032.0" y="894.0" type="line"/>
      <point x="531.0" y="906.0" type="line"/>
    </contour>
    <contour>
      <point x="44.0" y="405.0" type="line"/>
      <point x="44.0" y="450.0" type="line"/>
      <point x="527.0" y="483.0" type="line"/>
      <point x="1028.0" y="450.0" type="line"/>
      <point x="1028.0" y="405.0" type="line"/>
      <point x="527.0" y="417.0" type="line"/>
    </contour>
  </outline>
</glyph>
<glyph name="minute" format="2">
  <advance width="532"/>
  <unicode hex="2032"/>
  <outline>
    <contour>
      <point x="97.24193548387096" y="964.0" type="line"/>
      <point x="237.6290322580645" y="1406.3387096774193" type="line" smooth="yes"/>
      <point x="273.91129032258067" y="1481.9032258064517"/>
      <point x="385.0403225806452" y="1553.467741935484"/>
      <point x="458.88709677419354" y="1523.1854838709678" type="qcurve" smooth="yes"/>
      <point x="525.733870967742" y="1493.6209677419354"/>
      <point x="518.016129032258" y="1352.2096774193549"/>
      <point x="460.4516129032258" y="1284.6451612903227" type="qcurve" smooth="yes"/>
      <point x="132.3709677419355" y="956.0" type="line"/>
    </contour>
  </outline>
</glyph>
<glyph name="guilsinglleft" format="2">
  <advance width="953"/>
  <unicode hex="2039"/>
  <outline>
    <contour>
      <point x="45.0" y="641.0" type="line"/>
      <point x="45.0" y="641.0"/>
      <point x="708.0" y="1036.0"/>
      <point x="743.0" y="1047.0" type="qcurve" smooth="yes"/>
      <point x="791.0" y="1070.0"/>
      <point x="828.0" y="948.0"/>
      <point x="783.0" y="922.0" type="qcurve" smooth="yes"/>
      <point x="741.0" y="904.0"/>
      <point x="334.0" y="612.0"/>
      <point x="320.0" y="601.0" type="qcurve"/>
      <point x="332.0" y="589.0"/>
      <point x="741.0" y="325.0"/>
      <point x="795.0" y="290.0" type="qcurve" smooth="yes"/>
      <point x="837.0" y="262.0"/>
      <point x="779.0" y="161.0"/>
      <point x="747.0" y="174.0" type="qcurve" smooth="yes"/>
      <point x="685.0" y="210.0"/>
      <point x="120.0" y="532.0"/>
      <point x="46.0" y="580.0" type="qcurve"/>
    </contour>
  </outline>
</glyph>
<glyph name="colonsign" format="2">
  <advance width="1418"/>
  <unicode hex="20A1"/>
  <outline>
    <contour>
      <point x="-28.0" y="734.0" type="qcurve" smooth="yes"/>
      <point x="-28.0" y="1182.0"/>
      <point x="386.0" y="1518.0"/>
      <point x="752.0" y="1518.0" type="qcurve" smooth="yes"/>
      <point x="991.0" y="1518.0"/>
      <point x="1274.0" y="1319.0"/>
      <point x="1296.0" y="1087.0" type="qcurve"/>
      <point x="1180.0" y="1087.0" type="line"/>
      <point x="1151.0" y="1249.0"/>
      <point x="946.0" y="1431.0"/>
      <point x="800.0" y="1431.0" type="qcurve" smooth="yes"/>
      <point x="568.0" y="1431.0"/>
      <point x="389.0" y="1125.0"/>
      <point x="392.0" y="702.0" type="qcurve" smooth="yes"/>
      <point x="393.0" y="396.0"/>
      <point x="645.0" y="43.0"/>
      <point x="834.0" y="43.0" type="qcurve" smooth="yes"/>
      <point x="993.0" y="43.0"/>
      <point x="1151.0" y="259.0"/>
      <point x="1203.0" y="332.0" type="qcurve"/>
      <point x="1244.0" y="271.0" type="line"/>
      <point x="1179.0" y="151.0"/>
      <point x="966.0" y="-26.0"/>
      <point x="743.0" y="-26.0" type="qcurve" smooth="yes"/>
      <point x="375.0" y="-26.0"/>
      <point x="-28.0" y="360.0"/>
    </contour>
    <contour>
      <point x="527.0" y="-64.0" type="line"/>
      <point x="597.0" y="58.0" type="line"/>
      <point x="604.0" y="58.0" type="line"/>
      <point x="918.0" y="941.0" type="line"/>
      <point x="956.0" y="897.0" type="line"/>
      <point x="658.0" y="53.0" type="line"/>
      <point x="667.0" y="56.0" type="line"/>
      <point x="609.0" y="-71.0" type="line"/>
    </contour>
    <contour>
      <point x="1154.0" y="1640.0" type="line"/>
      <point x="1237.0" y="1643.0" type="line"/>
      <point x="1146.0" y="1415.0" type="line"/>
      <point x="1131.0" y="1405.0" type="line"/>
      <point x="956.0" y="897.0" type="line"/>
      <point x="918.0" y="941.0" type="line"/>
      <point x="1079.0" y="1407.0" type="line"/>
      <point x="1074.0" y="1417.0" type="line"/>
    </contour>
    <contour>
      <point x="386.0" y="-116.0" type="line"/>
      <point x="431.0" y="-64.0" type="line"/>
      <point x="438.0" y="-64.0" type="line"/>
      <point x="778.0" y="941.0" type="line"/>
      <point x="816.0" y="897.0" type="line"/>
      <point x="492.0" y="-69.0" type="line"/>
      <point x="501.0" y="-66.0" type="line"/>
      <point x="468.0" y="-123.0" type="line"/>
    </contour>
    <contour>
      <point x="1015.0" y="1640.0" type="line"/>
      <point x="1097.0" y="1643.0" type="line"/>
      <point x="1024.0" y="1467.0" type="line"/>
      <point x="1009.0" y="1457.0" type="line"/>
      <point x="816.0" y="897.0" type="line"/>
      <point x="778.0" y="941.0" type="line"/>
      <point x="973.0" y="1519.0" type="line"/>
      <point x="969.0" y="1531.0" type="line"/>
    </contour>
  </outline>
</glyph>
<glyph name="lira" format="2">
  <advance width="1398"/>
  <unicode hex="20A4"/>
  <outline>
    <contour>
      <point x="835.0" y="515.0" type="qcurve" smooth="yes"/>
      <point x="835.0" y="432.0"/>
      <point x="701.0" y="284.0"/>
      <point x="578.0" y="221.0" type="qcurve"/>
      <point x="587.0" y="215.0" type="line"/>
      <point x="1228.0" y="208.0" type="line"/>
      <point x="1357.0" y="422.0" type="line"/>
      <point x="1419.0" y="422.0" type="line"/>
      <point x="1294.0" y="0.0" type="line"/>
      <point x="79.0" y="0.0" type="line"/>
      <point x="42.0" y="83.0" type="line"/>
      <point x="105.0" y="153.0" type="line"/>
      <point x="342.0" y="141.0"/>
      <point x="555.0" y="322.0"/>
      <point x="555.0" y="406.0" type="qcurve" smooth="yes"/>
      <point x="555.0" y="528.0"/>
      <point x="410.0" y="717.0"/>
      <point x="331.0" y="805.0" type="qcurve" smooth="yes"/>
      <point x="235.0" y="906.0"/>
      <point x="202.0" y="1046.0"/>
      <point x="202.0" y="1151.0" type="qcurve" smooth="yes"/>
      <point x="202.0" y="1329.0"/>
      <point x="471.0" y="1516.0"/>
      <point x="799.0" y="1516.0" type="qcurve" smooth="yes"/>
      <point x="947.0" y="1516.0"/>
      <point x="1241.0" y="1441.0"/>
      <point x="1340.0" y="1356.0" type="qcurve"/>
      <point x="1301.0" y="1259.0" type="line"/>
      <point x="1218.0" y="1333.0"/>
      <point x="981.0" y="1401.0"/>
      <point x="869.0" y="1401.0" type="qcurve" smooth="yes"/>
      <point x="711.0" y="1401.0"/>
      <point x="590.0" y="1271.0"/>
      <point x="590.0" y="1173.0" type="qcurve" smooth="yes"/>
      <point x="590.0" y="1090.0"/>
      <point x="615.0" y="975.0"/>
      <point x="690.0" y="895.0" type="qcurve" smooth="yes"/>
      <point x="774.0" y="798.0"/>
      <point x="835.0" y="641.0"/>
    </contour>
    <contour>
      <point x="275.0" y="531.0" type="line"/>
      <point x="244.0" y="637.0" type="line"/>
      <point x="1168.0" y="637.0" type="line"/>
      <point x="1139.0" y="531.0" type="line"/>
    </contour>
    <contour>
      <point x="205.0" y="761.0" type="line"/>
      <point x="174.0" y="867.0" type="line"/>
      <point x="1198.0" y="867.0" type="line"/>
      <point x="1169.0" y="761.0" type="line"/>
    </contour>
  </outline>
</glyph>
<glyph name="won" format="2">
  <advance width="2144"/>
  <unicode hex="20A9"/>
  <outline>
    <contour>
      <point x="4.0" y="1444.0" type="line"/>
      <point x="4.0" y="1500.0" type="line"/>
      <point x="718.0" y="1500.0" type="line"/>
      <point x="718.0" y="1444.0" type="line"/>
      <point x="546.0" y="1417.0" type="line"/>
      <point x="684.0" y="845.0" type="line"/>
      <point x="821.0" y="318.0" type="line"/>
      <point x="949.0" y="909.0" type="line"/>
      <point x="993.0" y="1229.0" type="line"/>
      <point x="1065.0" y="1152.0" type="line"/>
      <point x="991.0" y="829.0" type="line"/>
      <point x="825.0" y="2.0" type="line"/>
      <point x="461.0" y="2.0" type="line"/>
      <point x="286.0" y="754.0" type="line"/>
      <point x="126.0" y="1415.0" type="line"/>
    </contour>
    <contour>
      <point x="857.0" y="1437.0" type="line"/>
      <point x="857.0" y="1500.0" type="line"/>
      <point x="1465.0" y="1500.0" type="line"/>
      <point x="1465.0" y="1437.0" type="line"/>
      <point x="1344.0" y="1411.0" type="line"/>
      <point x="1491.0" y="850.0" type="line"/>
      <point x="1639.0" y="342.0" type="line"/>
      <point x="1723.0" y="839.0" type="line"/>
      <point x="1823.0" y="1405.0" type="line"/>
      <point x="1663.0" y="1444.0" type="line"/>
      <point x="1663.0" y="1500.0" type="line"/>
      <point x="2056.0" y="1500.0" type="line"/>
      <point x="2056.0" y="1444.0" type="line"/>
      <point x="1871.0" y="1414.0" type="line"/>
      <point x="1772.0" y="835.0" type="line"/>
      <point x="1640.0" y="2.0" type="line"/>
      <point x="1292.0" y="2.0" type="line"/>
      <point x="1132.0" y="729.0" type="line"/>
      <point x="958.0" y="1408.0" type="line"/>
    </contour>
    <contour>
      <point x="1874.0" y="591.0" type="line"/>
      <point x="1705.0" y="591.0" type="line"/>
      <point x="1705.0" y="586.0" type="line"/>
      <point x="1220.0" y="586.0" type="line"/>
      <point x="1213.0" y="656.0" type="line"/>
      <point x="1714.0" y="656.0" type="line"/>
      <point x="1714.0" y="651.0" type="line"/>
      <point x="1883.0" y="651.0" type="line"/>
    </contour>
    <contour>
      <point x="1947.0" y="931.0" type="line"/>
      <point x="1754.0" y="931.0" type="line"/>
      <point x="1754.0" y="921.0" type="line"/>
      <point x="1140.0" y="921.0" type="line"/>
      <point x="1130.0" y="1001.0" type="line"/>
      <point x="1763.0" y="1001.0" type="line"/>
      <point x="1763.0" y="991.0" type="line"/>
      <point x="1956.0" y="991.0" type="line"/>
    </contour>
    <contour>
      <point x="224.0" y="591.0" type="line"/>
      <point x="205.0" y="651.0" type="line"/>
      <point x="459.0" y="651.0" type="line"/>
      <point x="459.0" y="656.0" type="line"/>
      <point x="1213.0" y="656.0" type="line"/>
      <point x="1220.0" y="586.0" type="line"/>
      <point x="472.0" y="586.0" type="line"/>
      <point x="472.0" y="591.0" type="line"/>
    </contour>
    <contour>
      <point x="149.0" y="931.0" type="line"/>
      <point x="132.0" y="991.0" type="line"/>
      <point x="369.0" y="991.0" type="line"/>
      <point x="369.0" y="1001.0" type="line"/>
      <point x="1128.0" y="1001.0" type="line"/>
      <point x="1132.0" y="921.0" type="line"/>
      <point x="379.0" y="921.0" type="line"/>
      <point x="379.0" y="931.0" type="line"/>
    </contour>
  </outline>
</glyph>
<glyph name="dong" format="2">
  <advance width="1808"/>
  <unicode hex="20AB"/>
  <outline>
    <contour>
      <point x="60.0" y="488.0" type="qcurve" smooth="yes"/>
      <point x="60.0" y="756.0"/>
      <point x="436.0" y="1002.0"/>
      <point x="737.0" y="1002.0" type="qcurve" smooth="yes"/>
      <point x="839.0" y="1002.0"/>
      <point x="1050.0" y="963.0"/>
      <point x="1107.0" y="930.0" type="qcurve"/>
      <point x="1113.0" y="1381.0" type="line"/>
      <point x="926.0" y="1436.0" type="line"/>
      <point x="926.0" y="1500.0" type="line"/>
      <point x="1486.0" y="1534.0" type="line"/>
      <point x="1507.0" y="1533.0" type="line"/>
      <point x="1550.0" y="1484.0" type="line"/>
      <point x="1545.0" y="498.0" type="line"/>
      <point x="1547.0" y="40.0" type="line"/>
      <point x="1665.0" y="-35.0" type="line"/>
      <point x="1665.0" y="-110.0" type="line"/>
      <point x="1137.0" y="0.0" type="line"/>
      <point x="1115.0" y="-88.0" type="line"/>
      <point x="1114.0" y="109.0" type="line"/>
      <point x="1062.0" y="58.0"/>
      <point x="795.0" y="-19.0"/>
      <point x="643.0" y="-19.0" type="qcurve" smooth="yes"/>
      <point x="402.0" y="-19.0"/>
      <point x="60.0" y="228.0"/>
    </contour>
    <contour>
      <point x="498.0" y="506.0" type="qcurve" smooth="yes"/>
      <point x="498.0" y="224.0"/>
      <point x="650.0" y="84.0"/>
      <point x="758.0" y="84.0" type="qcurve" smooth="yes"/>
      <point x="877.0" y="84.0"/>
      <point x="1072.0" y="175.0"/>
      <point x="1105.0" y="240.0" type="qcurve"/>
      <point x="1100.0" y="552.0" type="line"/>
      <point x="1096.0" y="817.0" type="line"/>
      <point x="1073.0" y="851.0"/>
      <point x="913.0" y="905.0"/>
      <point x="838.0" y="905.0" type="qcurve" smooth="yes"/>
      <point x="671.0" y="905.0"/>
      <point x="498.0" y="767.0"/>
    </contour>
    <contour>
      <point x="185.0" y="-222.0" type="line"/>
      <point x="185.0" y="-168.0" type="line"/>
      <point x="936.0" y="-168.0" type="line"/>
      <point x="1687.0" y="-168.0" type="line"/>
      <point x="1687.0" y="-222.0" type="line"/>
      <point x="937.0" y="-222.0" type="line"/>
    </contour>
    <contour>
      <point x="586.0" y="1162.0" type="line"/>
      <point x="587.0" y="1210.0" type="line"/>
      <point x="1224.0" y="1210.0" type="line"/>
      <point x="1793.0" y="1210.0" type="line"/>
      <point x="1793.0" y="1162.0" type="line"/>
      <point x="1223.0" y="1162.0" type="line"/>
    </contour>
  </outline>
</glyph>
<glyph name="euro" format="2">
  <advance width="1726"/>
  <unicode hex="20AC"/>
  <outline>
    <contour>
      <point x="256.0" y="746.0" type="qcurve" smooth="yes"/>
      <point x="256.0" y="1125.0"/>
      <point x="787.0" y="1520.0"/>
      <point x="1190.0" y="1520.0" type="qcurve" smooth="yes"/>
      <point x="1319.0" y="1520.0"/>
      <point x="1612.0" y="1449.0"/>
      <point x="1680.0" y="1384.0" type="qcurve"/>
      <point x="1640.0" y="1300.0" type="line"/>
      <point x="1566.0" y="1344.0"/>
      <point x="1350.0" y="1412.0"/>
      <point x="1249.0" y="1412.0" type="qcurve" smooth="yes"/>
      <point x="978.0" y="1412.0"/>
      <point x="727.0" y="1079.0"/>
      <point x="727.0" y="776.0" type="qcurve" smooth="yes"/>
      <point x="727.0" y="418.0"/>
      <point x="994.0" y="86.0"/>
      <point x="1287.0" y="86.0" type="qcurve" smooth="yes"/>
      <point x="1448.0" y="86.0"/>
      <point x="1610.0" y="179.0"/>
      <point x="1682.0" y="217.0" type="qcurve"/>
      <point x="1733.0" y="124.0" type="line"/>
      <point x="1624.0" y="23.0"/>
      <point x="1313.0" y="-19.0"/>
      <point x="1192.0" y="-19.0" type="qcurve" smooth="yes"/>
      <point x="730.0" y="-19.0"/>
      <point x="256.0" y="374.0"/>
    </contour>
    <contour>
      <point x="88.0" y="828.0" type="line"/>
      <point x="132.0" y="894.0" type="line"/>
      <point x="1492.0" y="894.0" type="line"/>
      <point x="1534.0" y="828.0" type="line"/>
    </contour>
    <contour>
      <point x="104.0" y="611.0" type="line"/>
      <point x="89.0" y="677.0" type="line"/>
      <point x="1518.0" y="677.0" type="line"/>
      <point x="1476.0" y="611.0" type="line"/>
    </contour>
  </outline>
</glyph>
<glyph name="rupeeIndian" format="2">
  <advance width="1405"/>
  <unicode hex="20B9"/>
  <outline>
    <contour>
      <point x="46.0" y="1497.0" type="line"/>
      <point x="718.0" y="1495.0" type="line"/>
      <point x="1454.0" y="1492.0" type="line"/>
      <point x="1426.0" y="1395.0" type="line"/>
      <point x="952.0" y="1402.0" type="line"/>
      <point x="1051.0" y="1377.0"/>
      <point x="1148.0" y="1235.0"/>
      <point x="1148.0" y="1134.0" type="qcurve" smooth="yes"/>
      <point x="1148.0" y="987.0"/>
      <point x="880.0" y="772.0"/>
      <point x="704.0" y="760.0" type="qcurve"/>
      <point x="831.0" y="795.0"/>
      <point x="1062.0" y="488.0"/>
      <point x="1143.0" y="342.0" type="qcurve" smooth="yes"/>
      <point x="1235.0" y="185.0"/>
      <point x="1336.0" y="76.0"/>
      <point x="1439.0" y="84.0" type="qcurve"/>
      <point x="1439.0" y="39.0" type="line"/>
      <point x="1146.0" y="-8.0" type="line"/>
      <point x="1076.0" y="-23.0"/>
      <point x="842.0" y="111.0"/>
      <point x="760.0" y="275.0" type="qcurve" smooth="yes"/>
      <point x="677.0" y="441.0"/>
      <point x="482.0" y="714.0"/>
      <point x="421.0" y="762.0" type="qcurve"/>
      <point x="224.0" y="759.0" type="line"/>
      <point x="207.0" y="834.0" type="line"/>
      <point x="462.0" y="831.0" type="line" smooth="yes"/>
      <point x="616.0" y="829.0"/>
      <point x="777.0" y="995.0"/>
      <point x="777.0" y="1164.0" type="qcurve" smooth="yes"/>
      <point x="777.0" y="1264.0"/>
      <point x="701.0" y="1377.0"/>
      <point x="623.0" y="1404.0" type="qcurve"/>
      <point x="72.0" y="1404.0" type="line"/>
    </contour>
    <contour>
      <point x="1006.0" y="1143.0" type="line"/>
      <point x="1006.0" y="1143.0" type="line"/>
      <point x="1385.0" y="1143.0" type="line"/>
      <point x="1357.0" y="1057.0" type="line"/>
      <point x="970.0" y="1057.0" type="line"/>
      <point x="970.0" y="1057.0" type="line"/>
      <point x="126.0" y="1057.0" type="line"/>
      <point x="110.0" y="1143.0" type="line"/>
    </contour>
  </outline>
</glyph>
<glyph name="manat" format="2">
  <advance width="1642"/>
  <unicode hex="20BC"/>
  <outline>
    <contour>
      <point x="1577.0" y="25.0" type="line"/>
      <point x="1577.0" y="0.0" type="line"/>
      <point x="950.0" y="0.0" type="line"/>
      <point x="950.0" y="25.0" type="line"/>
      <point x="1074.0" y="55.0" type="line"/>
      <point x="1079.0" y="706.0" type="line"/>
      <point x="1076.0" y="1003.0" type="line" smooth="yes"/>
      <point x="1074.0" y="1203.0"/>
      <point x="980.0" y="1378.0"/>
      <point x="781.0" y="1378.0" type="qcurve" smooth="yes"/>
      <point x="608.0" y="1378.0"/>
      <point x="427.0" y="1188.0"/>
      <point x="433.0" y="982.0" type="qcurve" smooth="yes"/>
      <point x="431.0" y="706.0" type="line"/>
      <point x="433.0" y="55.0" type="line"/>
      <point x="631.0" y="25.0" type="line"/>
      <point x="631.0" y="0.0" type="line"/>
      <point x="55.0" y="0.0" type="line"/>
      <point x="55.0" y="25.0" type="line"/>
      <point x="247.0" y="55.0" type="line"/>
      <point x="247.0" y="706.0" type="line"/>
      <point x="247.0" y="1025.0" type="line" smooth="yes"/>
      <point x="247.0" y="1262.0"/>
      <point x="598.0" y="1465.0"/>
      <point x="831.0" y="1465.0" type="qcurve" smooth="yes"/>
      <point x="1180.0" y="1465.0"/>
      <point x="1426.0" y="1235.0"/>
      <point x="1427.0" y="1024.0" type="qcurve" smooth="yes"/>
      <point x="1425.0" y="706.0" type="line"/>
      <point x="1427.0" y="55.0" type="line"/>
    </contour>
    <contour>
      <point x="744.0" y="280.0" type="line"/>
      <point x="745.0" y="662.0" type="line"/>
      <point x="745.0" y="1350.0" type="line"/>
      <point x="753.0" y="1570.0" type="line"/>
      <point x="818.0" y="1590.0" type="line"/>
      <point x="815.0" y="1350.0" type="line"/>
      <point x="815.0" y="762.0" type="line"/>
      <point x="807.0" y="310.0" type="line"/>
    </contour>
  </outline>
</glyph>
<glyph name="notequal" format="2">
  <advance width="1152"/>
  <unicode hex="2260"/>
  <outline>
    <contour>
      <point x="135.0" y="314.0" type="line"/>
      <point x="135.0" y="533.0" type="line"/>
      <point x="575.0" y="530.0" type="line"/>
      <point x="1016.0" y="533.0" type="line"/>
      <point x="1016.0" y="314.0" type="line"/>
      <point x="575.0" y="317.0" type="line"/>
    </contour>
    <contour>
      <point x="135.0" y="699.0" type="line"/>
      <point x="135.0" y="918.0" type="line"/>
      <point x="575.0" y="915.0" type="line"/>
      <point x="1016.0" y="918.0" type="line"/>
      <point x="1016.0" y="699.0" type="line"/>
      <point x="575.0" y="702.0" type="line"/>
    </contour>
    <contour>
      <point x="213.0" y="73.0" type="line"/>
      <point x="802.0" y="1208.0" type="line"/>
      <point x="968.0" y="1120.0" type="line"/>
      <point x="379.0" y="-15.0" type="line"/>
    </contour>
  </outline>
</glyph>
<glyph name="rightanglebracket" format="2">
  <advance width="1094"/>
  <unicode hex="27E9"/>
  <outline>
    <contour>
      <point x="141.0" y="-126.0" type="line"/>
      <point x="30.0" y="109.0" type="line"/>
      <point x="644.0" y="800.0" type="line"/>
      <point x="53.0" y="1311.0" type="line"/>
      <point x="131.0" y="1508.0" type="line"/>
      <point x="1047.0" y="832.0" type="line"/>
      <point x="1047.0" y="736.0" type="line"/>
    </contour>
  </outline>
</glyph>
<glyph name="f_f" format="2">
  <advance width="2158"/>
  <unicode hex="FB00"/>
  <outline>
    <contour>
      <point x="125.0" y="0.0" type="line"/>
      <point x="125.0" y="65.0" type="line"/>
      <point x="264.0" y="100.0" type="line"/>
      <point x="279.0" y="502.0" type="line"/>
      <point x="282.0" y="847.0" type="line"/>
      <point x="103.0" y="861.0" type="line"/>
      <point x="108.0" y="935.0" type="line"/>
      <point x="282.0" y="952.0" type="line"/>
      <point x="274.0" y="1179.0" type="line" smooth="yes"/>
      <point x="268.0" y="1314.0"/>
      <point x="477.0" y="1508.0"/>
      <point x="701.0" y="1508.0" type="qcurve" smooth="yes"/>
      <point x="819.0" y="1508.0"/>
      <point x="986.0" y="1460.0"/>
      <point x="1022.0" y="1433.0" type="qcurve" smooth="yes"/>
      <point x="1036.0" y="1416.0" type="line"/>
      <point x="1044.0" y="1318.0" type="line"/>
      <point x="1049.0" y="1320.0" type="line" smooth="yes"/>
      <point x="1015.0" y="1334.0"/>
      <point x="915.0" y="1356.0"/>
      <point x="870.0" y="1356.0" type="qcurve" smooth="yes"/>
      <point x="818.0" y="1356.0"/>
      <point x="766.0" y="1306.0"/>
      <point x="765.0" y="1318.0" type="qcurve" smooth="yes"/>
      <point x="760.0" y="933.0" type="line"/>
      <point x="1336.0" y="933.0" type="line"/>
      <point x="1328.0" y="1007.0" type="line" smooth="yes"/>
      <point x="1326.0" y="1234.0"/>
      <point x="1561.0" y="1488.0"/>
      <point x="1785.0" y="1488.0" type="qcurve" smooth="yes"/>
      <point x="1915.0" y="1488.0"/>
      <point x="2128.0" y="1436.0"/>
      <point x="2170.0" y="1400.0" type="qcurve" smooth="yes"/>
      <point x="2174.0" y="1382.0" type="line"/>
      <point x="2182.0" y="1284.0" type="line"/>
      <point x="2185.0" y="1290.0" type="line" smooth="yes"/>
      <point x="2153.0" y="1306.0"/>
      <point x="2029.0" y="1336.0"/>
      <point x="1974.0" y="1336.0" type="qcurve" smooth="yes"/>
      <point x="1892.0" y="1336.0"/>
      <point x="1824.0" y="1240.0"/>
      <point x="1819.0" y="1156.0" type="qcurve" smooth="yes"/>
      <point x="1814.0" y="933.0" type="line"/>
      <point x="2106.0" y="933.0" type="line"/>
      <point x="2106.0" y="831.0" type="line"/>
      <point x="1814.0" y="843.0" type="line"/>
      <point x="1809.0" y="502.0" type="line"/>
      <point x="1798.0" y="100.0" type="line"/>
      <point x="1998.0" y="65.0" type="line"/>
      <point x="1998.0" y="0.0" type="line"/>
      <point x="1146.0" y="0.0" type="line"/>
      <point x="1146.0" y="65.0" type="line"/>
      <point x="1318.0" y="100.0" type="line"/>
      <point x="1333.0" y="502.0" type="line"/>
      <point x="1336.0" y="830.0" type="line"/>
      <point x="1347.0" y="849.0" type="line"/>
      <point x="760.0" y="843.0" type="line"/>
      <point x="755.0" y="502.0" type="line"/>
      <point x="744.0" y="100.0" type="line"/>
      <point x="928.0" y="65.0" type="line"/>
      <point x="928.0" y="0.0" type="line"/>
    </contour>
  </outline>
</glyph>
<glyph name="fl" format="2">
  <advance width="1974"/>
  <unicode hex="FB02"/>
  <outline>
    <contour>
      <point x="125.0" y="0.0" type="line"/>
      <point x="125.0" y="65.0" type="line"/>
      <point x="264.0" y="100.0" type="line"/>
      <point x="279.0" y="502.0" type="line"/>
      <point x="282.0" y="832.0" type="line"/>
      <point x="103.0" y="863.0" type="line"/>
      <point x="108.0" y="927.0" type="line"/>
      <point x="282.0" y="946.0" type="line"/>
      <point x="274.0" y="1017.0" type="line" smooth="yes"/>
      <point x="272.0" y="1244.0"/>
      <point x="517.0" y="1498.0"/>
      <point x="738.0" y="1498.0" type="qcurve" smooth="yes"/>
      <point x="849.0" y="1498.0"/>
      <point x="1026.0" y="1477.0"/>
      <point x="1079.0" y="1460.0" type="qcurve" smooth="yes"/>
      <point x="1071.0" y="1457.0" type="line"/>
      <point x="1728.0" y="1499.0" type="line"/>
      <point x="1744.0" y="1502.0" type="line"/>
      <point x="1794.0" y="1454.0" type="line"/>
      <point x="1792.0" y="527.0" type="line"/>
      <point x="1794.0" y="100.0" type="line"/>
      <point x="1948.0" y="65.0" type="line"/>
      <point x="1948.0" y="0.0" type="line"/>
      <point x="1137.0" y="0.0" type="line"/>
      <point x="1137.0" y="65.0" type="line"/>
      <point x="1320.0" y="100.0" type="line"/>
      <point x="1322.0" y="527.0" type="line"/>
      <point x="1320.0" y="1366.0" type="line"/>
      <point x="1335.0" y="1333.0" type="line" smooth="yes"/>
      <point x="1297.0" y="1334.0"/>
      <point x="1058.0" y="1354.0"/>
      <point x="955.0" y="1354.0" type="qcurve" smooth="yes"/>
      <point x="853.0" y="1354.0"/>
      <point x="764.0" y="1250.0"/>
      <point x="765.0" y="1166.0" type="qcurve" smooth="yes"/>
      <point x="760.0" y="933.0" type="line"/>
      <point x="1036.0" y="933.0" type="line"/>
      <point x="1036.0" y="851.0" type="line"/>
      <point x="760.0" y="859.0" type="line"/>
      <point x="755.0" y="502.0" type="line"/>
      <point x="744.0" y="100.0" type="line"/>
      <point x="923.0" y="65.0" type="line"/>
      <point x="923.0" y="0.0" type="line"/>
    </contour>
  </outline>
</glyph>
<glyph name="f_f_l" format="2">
  <advance width="3022"/>
  <unicode hex="FB04"/>
  <outline>
    <contour>
      <point x="125.0" y="0.0" type="line"/>
      <point x="125.0" y="65.0" type="line"/>
      <point x="264.0" y="100.0" type="line"/>
      <point x="279.0" y="502.0" type="line"/>
      <point x="282.0" y="832.0" type="line"/>
      <point x="103.0" y="863.0" type="line"/>
      <point x="108.0" y="927.0" type="line"/>
      <point x="282.0" y="946.0" type="line"/>
      <point x="274.0" y="1179.0" type="line" smooth="yes"/>
      <point x="268.0" y="1314.0"/>
      <point x="477.0" y="1508.0"/>
      <point x="701.0" y="1508.0" type="qcurve" smooth="yes"/>
      <point x="827.0" y="1508.0"/>
      <point x="988.0" y="1462.0"/>
      <point x="1018.0" y="1435.0" type="qcurve" smooth="yes"/>
      <point x="1036.0" y="1416.0" type="line"/>
      <point x="1044.0" y="1318.0" type="line"/>
      <point x="1037.0" y="1324.0" type="line" smooth="yes"/>
      <point x="1015.0" y="1334.0"/>
      <point x="921.0" y="1356.0"/>
      <point x="870.0" y="1356.0" type="qcurve" smooth="yes"/>
      <point x="818.0" y="1356.0"/>
      <point x="766.0" y="1306.0"/>
      <point x="765.0" y="1318.0" type="qcurve" smooth="yes"/>
      <point x="760.0" y="933.0" type="line"/>
      <point x="1330.0" y="935.0" type="line"/>
      <point x="1322.0" y="1017.0" type="line" smooth="yes"/>
      <point x="1320.0" y="1243.0"/>
      <point x="1565.0" y="1497.0"/>
      <point x="1786.0" y="1497.0" type="qcurve" smooth="yes"/>
      <point x="1897.0" y="1497.0"/>
      <point x="2074.0" y="1476.0"/>
      <point x="2127.0" y="1459.0" type="qcurve" smooth="yes"/>
      <point x="2119.0" y="1456.0" type="line"/>
      <point x="2776.0" y="1499.0" type="line"/>
      <point x="2792.0" y="1502.0" type="line"/>
      <point x="2842.0" y="1454.0" type="line"/>
      <point x="2840.0" y="527.0" type="line"/>
      <point x="2842.0" y="100.0" type="line"/>
      <point x="2996.0" y="65.0" type="line"/>
      <point x="2996.0" y="0.0" type="line"/>
      <point x="2179.0" y="0.0" type="line"/>
      <point x="2179.0" y="65.0" type="line"/>
      <point x="2368.0" y="100.0" type="line"/>
      <point x="2370.0" y="527.0" type="line"/>
      <point x="2368.0" y="1329.0" type="line"/>
      <point x="2383.0" y="1332.0" type="line" smooth="yes"/>
      <point x="2345.0" y="1335.0"/>
      <point x="2106.0" y="1353.0"/>
      <point x="2003.0" y="1353.0" type="qcurve" smooth="yes"/>
      <point x="1901.0" y="1353.0"/>
      <point x="1812.0" y="1249.0"/>
      <point x="1813.0" y="1165.0" type="qcurve" smooth="yes"/>
      <point x="1808.0" y="933.0" type="line"/>
      <point x="2064.0" y="933.0" type="line"/>
      <point x="2064.0" y="851.0" type="line"/>
      <point x="1808.0" y="859.0" type="line"/>
      <point x="1803.0" y="502.0" type="line"/>
      <point x="1792.0" y="100.0" type="line"/>
      <point x="1965.0" y="65.0" type="line"/>
      <point x="1965.0" y="0.0" type="line"/>
      <point x="1142.0" y="0.0" type="line"/>
      <point x="1142.0" y="65.0" type="line"/>
      <point x="1312.0" y="100.0" type="line"/>
      <point x="1327.0" y="502.0" type="line"/>
      <point x="1330.0" y="859.0" type="line"/>
      <point x="1287.0" y="860.0" type="line"/>
      <point x="760.0" y="839.0" type="line"/>
      <point x="755.0" y="502.0" type="line"/>
      <point x="744.0" y="100.0" type="line"/>
      <point x="924.0" y="65.0" type="line"/>
      <point x="924.0" y="0.0" type="line"/>
    </contour>
  </outline>
</glyph>
<glyph name="acutecombstack.case" format="2">
  <advance width="1024"/>
  <outline>
    <contour>
      <point x="873.0" y="1782.0" type="qcurve" smooth="yes"/>
      <point x="855.0" y="1734.0"/>
      <point x="695.0" y="1648.0"/>
      <point x="613.0" y="1653.0" type="qcurve" smooth="yes"/>
      <point x="76.0" y="1669.0" type="line"/>
      <point x="140.0" y="1773.0" type="line"/>
      <point x="597.0" y="1944.0" type="line" smooth="yes"/>
      <point x="682.0" y="1971.0"/>
      <point x="792.0" y="1957.0"/>
      <point x="804.0" y="1939.0" type="qcurve" smooth="yes"/>
      <point x="871.0" y="1919.0"/>
      <point x="892.0" y="1798.0"/>
    </contour>
  </outline>
</glyph>
<glyph name="brevecombstack.case" format="2">
  <advance width="1024"/>
  <outline>
    <contour>
      <point x="776.0" y="1864.0" type="qcurve"/>
      <point x="797.0" y="1897.0" type="line"/>
      <point x="810.0" y="1799.0"/>
      <point x="640.0" y="1626.0"/>
      <point x="514.0" y="1626.0" type="qcurve" smooth="yes"/>
      <point x="372.0" y="1626.0"/>
      <point x="213.0" y="1773.0"/>
      <point x="226.0" y="1890.0" type="qcurve"/>
      <point x="249.0" y="1865.0" type="line"/>
      <point x="269.0" y="1804.0"/>
      <point x="422.0" y="1737.0"/>
      <point x="516.0" y="1736.0" type="qcurve" smooth="yes"/>
      <point x="611.0" y="1737.0"/>
      <point x="766.0" y="1813.0"/>
    </contour>
  </outline>
</glyph>
<glyph name="breveinvertedcomb.case" format="2">
  <advance width="896"/>
  <outline>
    <contour>
      <point x="156.0" y="1585.0" type="qcurve"/>
      <point x="140.0" y="1558.0" type="line"/>
      <point x="122.0" y="1663.0"/>
      <point x="308.0" y="1847.0"/>
      <point x="445.0" y="1847.0" type="qcurve" smooth="yes"/>
      <point x="614.0" y="1847.0"/>
      <point x="786.0" y="1663.0"/>
      <point x="754.0" y="1563.0" type="qcurve"/>
      <point x="746.0" y="1583.0" type="line"/>
      <point x="725.0" y="1646.0"/>
      <point x="561.0" y="1733.0"/>
      <point x="444.0" y="1734.0" type="qcurve" smooth="yes"/>
      <point x="333.0" y="1733.0"/>
      <point x="169.0" y="1634.0"/>
    </contour>
  </outline>
</glyph>
<glyph name="caroncomb.alt" format="2">
  <advance width="896"/>
  <outline>
    <contour>
      <point x="340.0" y="1019.0" type="line"/>
      <point x="408.0" y="1433.0" type="line" smooth="yes"/>
      <point x="415.0" y="1468.0"/>
      <point x="457.0" y="1520.0"/>
      <point x="506.0" y="1529.0" type="qcurve" smooth="yes"/>
      <point x="551.0" y="1537.0"/>
      <point x="626.0" y="1488.0"/>
      <point x="633.0" y="1471.0" type="qcurve" smooth="yes"/>
      <point x="640.0" y="1452.0"/>
      <point x="636.0" y="1402.0"/>
      <point x="617.0" y="1380.0" type="qcurve" smooth="yes"/>
      <point x="390.0" y="997.0" type="line"/>
    </contour>
  </outline>
</glyph>
<glyph name="circumflexcomb.case" format="2">
  <advance width="896"/>
  <outline>
    <contour>
      <point x="447.0" y="1957.0" type="qcurve" smooth="yes"/>
      <point x="482.0" y="1957.0"/>
      <point x="548.0" y="1900.0"/>
      <point x="603.0" y="1848.0" type="qcurve" smooth="yes"/>
      <point x="825.0" y="1585.0" type="line"/>
      <point x="787.0" y="1568.0" type="line"/>
      <point x="447.0" y="1800.0" type="line"/>
      <point x="105.0" y="1554.0" type="line"/>
      <point x="81.0" y="1584.0" type="line"/>
      <point x="291.0" y="1848.0" type="line" smooth="yes"/>
      <point x="339.0" y="1905.0"/>
      <point x="412.0" y="1957.0"/>
    </contour>
  </outline>
</glyph>
<glyph name="circumflexcombstack.case" format="2">
  <advance width="1024"/>
  <outline>
    <contour>
      <point x="512.0" y="2029.0" type="qcurve" smooth="yes"/>
      <point x="544.0" y="2029.0"/>
      <point x="628.0" y="1951.0"/>
      <point x="673.0" y="1889.0" type="qcurve" smooth="yes"/>
      <point x="890.0" y="1581.0" type="line"/>
      <point x="852.0" y="1564.0" type="line"/>
      <point x="512.0" y="1836.0" type="line"/>
      <point x="170.0" y="1550.0" type="line"/>
      <point x="146.0" y="1580.0" type="line"/>
      <point x="351.0" y="1884.0" type="line" smooth="yes"/>
      <point x="392.0" y="1946.0"/>
      <point x="480.0" y="2029.0"/>
    </contour>
  </outline>
</glyph>
<glyph name="commaaccentcomb.case" format="2">
  <advance width="896"/>
  <outline>
    <contour>
      <point x="360.0" y="-575.0" type="line"/>
      <point x="409.0" y="-540.0"/>
      <point x="450.0" y="-469.0"/>
      <point x="474.0" y="-419.0" type="qcurve"/>
      <point x="413.0" y="-420.0"/>
      <point x="353.0" y="-352.0"/>
      <point x="353.0" y="-306.0" type="qcurve" smooth="yes"/>
      <point x="353.0" y="-260.0"/>
      <point x="410.0" y="-197.0"/>
      <point x="464.0" y="-197.0" type="qcurve" smooth="yes"/>
      <point x="526.0" y="-197.0"/>
      <point x="588.0" y="-270.0"/>
      <point x="588.0" y="-324.0" type="qcurve" smooth="yes"/>
      <point x="588.0" y="-380.0"/>
      <point x="484.0" y="-523.0"/>
      <point x="365.0" y="-586.0" type="qcurve"/>
    </contour>
  </outline>
</glyph>
<glyph name="dblgravecomb.case" format="2">
  <advance width="896"/>
  <outline>
    <contour>
      <point x="-178.0" y="1893.0" type="qcurve" smooth="yes"/>
      <point x="-178.0" y="1911.0"/>
      <point x="-138.0" y="1983.0"/>
      <point x="-98.0" y="1983.0" type="qcurve" smooth="yes"/>
      <point x="-72.0" y="1983.0"/>
      <point x="32.0" y="1947.0"/>
      <point x="61.0" y="1917.0" type="qcurve" smooth="yes"/>
      <point x="328.0" y="1617.0" type="line"/>
      <point x="315.0" y="1600.0" type="line"/>
      <point x="-110.0" y="1800.0" type="line" smooth="yes"/>
      <point x="-142.0" y="1805.0"/>
      <point x="-178.0" y="1895.0"/>
    </contour>
    <contour>
      <point x="226.0" y="1893.0" type="qcurve" smooth="yes"/>
      <point x="226.0" y="1911.0"/>
      <point x="266.0" y="1983.0"/>
      <point x="307.0" y="1983.0" type="qcurve" smooth="yes"/>
      <point x="332.0" y="1983.0"/>
      <point x="434.0" y="1947.0"/>
      <point x="463.0" y="1917.0" type="qcurve" smooth="yes"/>
      <point x="732.0" y="1617.0" type="line"/>
      <point x="719.0" y="1600.0" type="line"/>
      <point x="294.0" y="1800.0" type="line" smooth="yes"/>
      <point x="263.0" y="1805.0"/>
      <point x="226.0" y="1895.0"/>
    </contour>
  </outline>
</glyph>
<glyph name="dieresiscomb.case" format="2">
  <advance width="896"/>
  <outline>
    <contour>
      <point x="116.0" y="1653.0" type="qcurve" smooth="yes"/>
      <point x="116.0" y="1712.0"/>
      <point x="188.0" y="1782.0"/>
      <point x="250.0" y="1782.0" type="qcurve" smooth="yes"/>
      <point x="310.0" y="1782.0"/>
      <point x="383.0" y="1710.0"/>
      <point x="383.0" y="1653.0" type="qcurve" smooth="yes"/>
      <point x="383.0" y="1594.0"/>
      <point x="310.0" y="1522.0"/>
      <point x="250.0" y="1522.0" type="qcurve" smooth="yes"/>
      <point x="189.0" y="1522.0"/>
      <point x="116.0" y="1595.0"/>
    </contour>
    <contour>
      <point x="513.0" y="1653.0" type="qcurve" smooth="yes"/>
      <point x="513.0" y="1712.0"/>
      <point x="586.0" y="1782.0"/>
      <point x="646.0" y="1782.0" type="qcurve" smooth="yes"/>
      <point x="707.0" y="1782.0"/>
      <point x="780.0" y="1710.0"/>
      <point x="780.0" y="1653.0" type="qcurve" smooth="yes"/>
      <point x="780.0" y="1594.0"/>
      <point x="708.0" y="1522.0"/>
      <point x="646.0" y="1522.0" type="qcurve" smooth="yes"/>
      <point x="586.0" y="1522.0"/>
      <point x="513.0" y="1595.0"/>
    </contour>
  </outline>
</glyph>
<glyph name="dollar.rvrn2" format="2">
  <advance width="1257"/>
  <outline>
    <contour>
      <point x="38.0" y="74.0" type="qcurve"/>
      <point x="52.0" y="226.0" type="line"/>
      <point x="113.0" y="156.0"/>
      <point x="381.0" y="57.0"/>
      <point x="557.0" y="57.0" type="qcurve" smooth="yes"/>
      <point x="713.0" y="57.0"/>
      <point x="868.0" y="183.0"/>
      <point x="868.0" y="305.0" type="qcurve" smooth="yes"/>
      <point x="868.0" y="410.0"/>
      <point x="688.0" y="536.0"/>
      <point x="475.0" y="632.0" type="qcurve" smooth="yes"/>
      <point x="253.0" y="729.0"/>
      <point x="15.0" y="975.0"/>
      <point x="15.0" y="1149.0" type="qcurve" smooth="yes"/>
      <point x="15.0" y="1330.0"/>
      <point x="329.0" y="1517.0"/>
      <point x="570.0" y="1517.0" type="qcurve" smooth="yes"/>
      <point x="745.0" y="1517.0"/>
      <point x="972.0" y="1449.0"/>
      <point x="1055.0" y="1399.0" type="qcurve"/>
      <point x="1013.0" y="1283.0" type="line"/>
      <point x="925.0" y="1363.0"/>
      <point x="682.0" y="1468.0"/>
      <point x="556.0" y="1468.0" type="qcurve" smooth="yes"/>
      <point x="414.0" y="1468.0"/>
      <point x="256.0" y="1365.0"/>
      <point x="256.0" y="1274.0" type="qcurve" smooth="yes"/>
      <point x="256.0" y="1142.0"/>
      <point x="443.0" y="1031.0"/>
      <point x="646.0" y="949.0" type="qcurve" smooth="yes"/>
      <point x="857.0" y="865.0"/>
      <point x="1161.0" y="592.0"/>
      <point x="1161.0" y="414.0" type="qcurve" smooth="yes"/>
      <point x="1161.0" y="206.0"/>
      <point x="864.0" y="-5.0"/>
      <point x="586.0" y="-5.0" type="qcurve" smooth="yes"/>
      <point x="393.0" y="-5.0"/>
      <point x="112.0" y="35.0"/>
    </contour>
    <contour>
      <point x="536.0" y="-142.0" type="line"/>
      <point x="536.0" y="57.0" type="line"/>
      <point x="524.0" y="57.0" type="line"/>
      <point x="524.0" y="743.0" type="line"/>
      <point x="618.0" y="752.0" type="line"/>
      <point x="618.0" y="57.0" type="line"/>
      <point x="608.0" y="57.0" type="line"/>
      <point x="608.0" y="-152.0" type="line"/>
    </contour>
    <contour>
      <point x="528.0" y="1648.0" type="line"/>
      <point x="600.0" y="1646.0" type="line"/>
      <point x="600.0" y="1423.0" type="line"/>
      <point x="611.0" y="1423.0" type="line"/>
      <point x="611.0" y="803.0" type="line"/>
      <point x="518.0" y="799.0" type="line"/>
      <point x="518.0" y="1423.0" type="line"/>
      <point x="528.0" y="1423.0" type="line"/>
    </contour>
  </outline>
</glyph>
<glyph name="dotaccentcomb.case" format="2">
  <advance width="896"/>
  <outline>
    <contour>
      <point x="302.0" y="1668.0" type="qcurve" smooth="yes"/>
      <point x="302.0" y="1739.0"/>
      <point x="378.0" y="1813.0"/>
      <point x="449.0" y="1813.0" type="qcurve" smooth="yes"/>
      <point x="517.0" y="1813.0"/>
      <point x="596.0" y="1733.0"/>
      <point x="596.0" y="1668.0" type="qcurve" smooth="yes"/>
      <point x="596.0" y="1598.0"/>
      <point x="522.0" y="1523.0"/>
      <point x="449.0" y="1523.0" type="qcurve" smooth="yes"/>
      <point x="381.0" y="1523.0"/>
      <point x="302.0" y="1602.0"/>
    </contour>
  </outline>
</glyph>
<glyph name="dotaccentcombstack.case" format="2">
  <advance width="1024"/>
  <outline>
    <contour>
      <point x="371.0" y="1692.0" type="qcurve" smooth="yes"/>
      <point x="371.0" y="1760.0"/>
      <point x="444.0" y="1831.0"/>
      <point x="512.0" y="1831.0" type="qcurve" smooth="yes"/>
      <point x="577.0" y="1831.0"/>
      <point x="653.0" y="1754.0"/>
      <point x="653.0" y="1692.0" type="qcurve" smooth="yes"/>
      <point x="653.0" y="1625.0"/>
      <point x="582.0" y="1553.0"/>
      <point x="512.0" y="1553.0" type="qcurve" smooth="yes"/>
      <point x="447.0" y="1553.0"/>
      <point x="371.0" y="1629.0"/>
    </contour>
  </outline>
</glyph>
<glyph name="dotbelowcomb.case" format="2">
  <advance width="896"/>
  <outline>
    <contour>
      <point x="367.0" y="-290.0" type="qcurve" smooth="yes"/>
      <point x="367.0" y="-221.0"/>
      <point x="443.0" y="-148.0"/>
      <point x="513.0" y="-148.0" type="qcurve" smooth="yes"/>
      <point x="580.0" y="-148.0"/>
      <point x="659.0" y="-227.0"/>
      <point x="659.0" y="-290.0" type="qcurve" smooth="yes"/>
      <point x="659.0" y="-360.0"/>
      <point x="585.0" y="-433.0"/>
      <point x="513.0" y="-433.0" type="qcurve" smooth="yes"/>
      <point x="446.0" y="-433.0"/>
      <point x="367.0" y="-356.0"/>
    </contour>
  </outline>
</glyph>
<glyph name="eight.tab" format="2">
  <advance width="1993"/>
  <outline>
    <contour>
      <point x="172.0" y="345.0" type="qcurve" smooth="yes"/>
      <point x="172.0" y="497.0"/>
      <point x="569.5" y="718.0"/>
      <point x="877.25" y="794.0" type="qcurve"/>
      <point x="954.9435483870968" y="778.741935483871" type="line"/>
      <point x="824.6532258064516" y="710.741935483871"/>
      <point x="565.7177419354839" y="470.0"/>
      <point x="565.7177419354839" y="305.0" type="qcurve" smooth="yes"/>
      <point x="565.7177419354839" y="156.0"/>
      <point x="771.5" y="33.0"/>
      <point x="948.9193548387098" y="33.0" type="qcurve" smooth="yes"/>
      <point x="1138.524193548387" y="33.0"/>
      <point x="1363.5645161290322" y="142.0"/>
      <point x="1363.5645161290322" y="268.0" type="qcurve" smooth="yes"/>
      <point x="1363.5645161290322" y="396.0"/>
      <point x="1092.5806451612902" y="592.0"/>
      <point x="851.0806451612902" y="673.0" type="qcurve" smooth="yes"/>
      <point x="555.733870967742" y="773.0"/>
      <point x="314.491935483871" y="974.0"/>
      <point x="318.491935483871" y="1157.0" type="qcurve" smooth="yes"/>
      <point x="322.491935483871" y="1316.0"/>
      <point x="623.1129032258065" y="1505.0"/>
      <point x="988.1290322580645" y="1505.0" type="qcurve" smooth="yes"/>
      <point x="1341.016129032258" y="1505.0"/>
      <point x="1658.9435483870968" y="1357.0"/>
      <point x="1658.9435483870968" y="1199.0" type="qcurve" smooth="yes"/>
      <point x="1658.9435483870968" y="1058.9435483870968"/>
      <point x="1351.8790322580644" y="865.766129032258"/>
      <point x="1099.516129032258" y="823.4112903225806" type="qcurve"/>
      <point x="1004.1290322580645" y="833.0" type="line"/>
      <point x="1181.1129032258063" y="908.0"/>
      <point x="1335.9435483870968" y="1114.0"/>
      <point x="1335.9435483870968" y="1227.0" type="qcurve" smooth="yes"/>
      <point x="1335.9435483870968" y="1353.0"/>
      <point x="1147.9112903225805" y="1434.0"/>
      <point x="986.8467741935484" y="1434.0" type="qcurve" smooth="yes"/>
      <point x="839.6290322580645" y="1434.0"/>
      <point x="700.491935483871" y="1389.0"/>
      <point x="700.491935483871" y="1281.0" type="qcurve" smooth="yes"/>
      <point x="700.491935483871" y="1153.0"/>
      <point x="920.5" y="996.0"/>
      <point x="1187.717741935484" y="913.0" type="qcurve" smooth="yes"/>
      <point x="1460.9354838709678" y="828.0"/>
      <point x="1818.0" y="592.0"/>
      <point x="1818.0" y="402.0" type="qcurve" smooth="yes"/>
      <point x="1818.0" y="195.0"/>
      <point x="1409.274193548387" y="-27.0"/>
      <point x="965.2822580645161" y="-27.0" type="qcurve" smooth="yes"/>
      <point x="550.2177419354839" y="-27.0"/>
      <point x="172.0" y="169.0"/>
    </contour>
  </outline>
</glyph>
<glyph name="engn" format="2">
  <advance width="2007"/>
  <outline>
    <contour>
      <point x="57.0" y="0.0" type="line"/>
      <point x="57.0" y="65.0" type="line"/>
      <point x="229.0" y="100.0" type="line"/>
      <point x="232.0" y="504.0" type="line"/>
      <point x="227.0" y="845.0" type="line"/>
      <point x="47.0" y="880.0" type="line"/>
      <point x="47.0" y="945.0" type="line"/>
      <point x="658.0" y="985.0" type="line"/>
      <point x="682.0" y="974.0" type="line"/>
      <point x="685.0" y="743.0" type="line"/>
      <point x="771.0" y="832.0"/>
      <point x="1095.0" y="993.0"/>
      <point x="1310.0" y="993.0" type="qcurve" smooth="yes"/>
      <point x="1569.0" y="993.0"/>
      <point x="1809.0" y="784.0"/>
      <point x="1809.0" y="628.0" type="qcurve" smooth="yes"/>
      <point x="1809.0" y="587.0"/>
      <point x="1810.0" y="607.0"/>
      <point x="1811.0" y="525.0" type="qcurve"/>
      <point x="1809.0" y="0.0" type="line"/>
      <point x="1329.0" y="0.0" type="line"/>
      <point x="1333.0" y="450.0" type="line"/>
      <point x="1333.0" y="564.0" type="line" smooth="yes"/>
      <point x="1333.0" y="700.0"/>
      <point x="1217.0" y="810.0"/>
      <point x="1071.0" y="810.0" type="qcurve" smooth="yes"/>
      <point x="947.0" y="810.0"/>
      <point x="754.0" y="695.0"/>
      <point x="700.0" y="654.0" type="qcurve"/>
      <point x="699.0" y="452.0" type="line"/>
      <point x="703.0" y="100.0" type="line"/>
      <point x="871.0" y="65.0" type="line"/>
      <point x="871.0" y="0.0" type="line"/>
    </contour>
  </outline>
</glyph>
<glyph name="four.lf" format="2">
  <advance width="1444"/>
  <outline>
    <contour>
      <point x="14.145161290322577" y="499.0" type="line"/>
      <point x="814.1451612903226" y="1465.0" type="line"/>
      <point x="1157.1451612903224" y="1455.0" type="line"/>
      <point x="1206.1451612903224" y="1375.0" type="line"/>
      <point x="1199.1451612903224" y="526.0" type="line"/>
      <point x="1199.1451612903224" y="89.0" type="line"/>
      <point x="1409.1451612903224" y="54.0" type="line"/>
      <point x="1409.1451612903224" y="0.0" type="line"/>
      <point x="447.14516129032256" y="0.0" type="line"/>
      <point x="447.14516129032256" y="54.0" type="line"/>
      <point x="736.1451612903226" y="89.0" type="line"/>
      <point x="725.1451612903226" y="529.0" type="line"/>
      <point x="725.1451612903226" y="1254.0" type="line"/>
      <point x="146.14516129032256" y="569.0" type="line"/>
      <point x="146.14516129032256" y="554.0" type="line"/>
      <point x="1391.1451612903224" y="569.0" type="line"/>
      <point x="1391.1451612903224" y="479.0" type="line"/>
      <point x="33.14516129032258" y="448.0" type="line"/>
    </contour>
  </outline>
</glyph>
<glyph name="four.tab" format="2">
  <advance width="1993"/>
  <outline>
    <contour>
      <point x="156.0" y="499.0" type="line"/>
      <point x="1121.8870967741937" y="1465.0" type="line"/>
      <point x="1464.8870967741937" y="1455.0" type="line"/>
      <point x="1513.8870967741937" y="1445.0" type="line"/>
      <point x="1506.8870967741937" y="526.0" type="line"/>
      <point x="1506.8870967741937" y="89.0" type="line"/>
      <point x="1782.532258064516" y="54.0" type="line"/>
      <point x="1782.532258064516" y="0.0" type="line"/>
      <point x="639.241935483871" y="0.0" type="line"/>
      <point x="639.241935483871" y="54.0" type="line"/>
      <point x="1043.8870967741937" y="89.0" type="line"/>
      <point x="1032.8870967741937" y="529.0" type="line"/>
      <point x="1032.8870967741937" y="1257.1048387096773" type="line"/>
      <point x="293.64516129032256" y="569.0" type="line"/>
      <point x="293.64516129032256" y="554.0" type="line"/>
      <point x="1843.0" y="569.0" type="line"/>
      <point x="1843.0" y="479.0" type="line"/>
      <point x="175.0" y="448.0" type="line"/>
    </contour>
  </outline>
</glyph>
<glyph name="gravecombstack.case" format="2">
  <advance width="1024"/>
  <outline>
    <contour>
      <point x="193.0" y="1843.0" type="qcurve" smooth="yes"/>
      <point x="176.0" y="1861.0"/>
      <point x="185.0" y="1946.0"/>
      <point x="254.0" y="1964.0" type="qcurve" smooth="yes"/>
      <point x="303.0" y="1981.0"/>
      <point x="418.0" y="1960.0"/>
      <point x="479.0" y="1959.0" type="qcurve" smooth="yes"/>
      <point x="919.0" y="1764.0" type="line"/>
      <point x="975.0" y="1661.0" type="line"/>
      <point x="449.0" y="1673.0" type="line" smooth="yes"/>
      <point x="374.0" y="1671.0"/>
      <point x="209.0" y="1785.0"/>
    </contour>
  </outline>
</glyph>
<glyph name="hornU" format="2">
  <advance width="1701"/>
  <outline>
    <contour>
      <point x="52.0" y="1442.0" type="line"/>
      <point x="52.0" y="1500.0" type="line"/>
      <point x="908.0" y="1500.0" type="line"/>
      <point x="908.0" y="1442.0" type="line"/>
      <point x="758.0" y="1408.0" type="line"/>
      <point x="755.0" y="864.0" type="line"/>
      <point x="756.0" y="508.0" type="line" smooth="yes"/>
      <point x="758.0" y="333.0"/>
      <point x="877.0" y="92.0"/>
      <point x="1197.0" y="92.0" type="qcurve" smooth="yes"/>
      <point x="1543.0" y="92.0"/>
      <point x="1741.0" y="343.0"/>
      <point x="1742.0" y="532.0" type="qcurve" smooth="yes"/>
      <point x="1742.0" y="864.0" type="line"/>
      <point x="1741.0" y="1408.0" type="line"/>
      <point x="1533.0" y="1442.0" type="line"/>
      <point x="1533.0" y="1500.0" type="line"/>
      <point x="1799.0" y="1500.0" type="line"/>
      <point x="1801.0" y="864.0" type="line"/>
      <point x="1798.0" y="520.0" type="line" smooth="yes"/>
      <point x="1796.0" y="301.0"/>
      <point x="1500.0" y="-20.0"/>
      <point x="1043.0" y="-20.0" type="qcurve" smooth="yes"/>
      <point x="584.0" y="-20.0"/>
      <point x="245.0" y="249.0"/>
      <point x="246.0" y="511.0" type="qcurve" smooth="yes"/>
      <point x="247.0" y="864.0" type="line"/>
      <point x="246.0" y="1408.0" type="line"/>
    </contour>
  </outline>
</glyph>
<glyph name="horncomb.case" format="2">
  <advance width="896"/>
  <outline>
    <contour>
      <point x="152.0" y="1494.0" type="line"/>
      <point x="224.0" y="1466.0"/>
      <point x="435.0" y="1436.0"/>
      <point x="463.0" y="1436.0" type="qcurve" smooth="yes"/>
      <point x="557.0" y="1436.0"/>
      <point x="588.0" y="1503.0"/>
      <point x="588.0" y="1526.0" type="qcurve" smooth="yes"/>
      <point x="588.0" y="1588.0"/>
      <point x="579.0" y="1622.0"/>
      <point x="557.0" y="1710.0" type="qcurve"/>
      <point x="594.0" y="1710.0" type="line"/>
      <point x="640.0" y="1622.0"/>
      <point x="657.0" y="1607.0"/>
      <point x="658.0" y="1587.0" type="qcurve" smooth="yes"/>
      <point x="659.0" y="1507.0"/>
      <point x="561.0" y="1377.0"/>
      <point x="415.0" y="1378.0" type="qcurve" smooth="yes"/>
      <point x="373.0" y="1379.0"/>
      <point x="253.0" y="1420.0"/>
      <point x="152.0" y="1462.0" type="qcurve"/>
    </contour>
  </outline>
</glyph>
<glyph name="hungarumlautcomb.case" format="2">
  <advance width="896"/>
  <outline>
    <contour>
      <point x="822.0" y="1909.0" type="qcurve" smooth="yes"/>
      <point x="822.0" y="1911.0"/>
      <point x="787.0" y="1822.0"/>
      <point x="756.0" y="1817.0" type="qcurve" smooth="yes"/>
      <point x="337.0" y="1620.0" type="line"/>
      <point x="324.0" y="1637.0" type="line"/>
      <point x="587.0" y="1934.0" type="line" smooth="yes"/>
      <point x="615.0" y="1964.0"/>
      <point x="718.0" y="2000.0"/>
      <point x="743.0" y="2000.0" type="qcurve" smooth="yes"/>
      <point x="784.0" y="2000.0"/>
      <point x="822.0" y="1927.0"/>
    </contour>
    <contour>
      <point x="1168.0" y="1909.0" type="qcurve" smooth="yes"/>
      <point x="1168.0" y="1911.0"/>
      <point x="1134.0" y="1822.0"/>
      <point x="1102.0" y="1817.0" type="qcurve" smooth="yes"/>
      <point x="683.0" y="1620.0" type="line"/>
      <point x="670.0" y="1637.0" type="line"/>
      <point x="931.0" y="1934.0" type="line" smooth="yes"/>
      <point x="959.0" y="1964.0"/>
      <point x="1064.0" y="2000.0"/>
      <point x="1090.0" y="2000.0" type="qcurve" smooth="yes"/>
      <point x="1130.0" y="2000.0"/>
      <point x="1168.0" y="1927.0"/>
    </contour>
  </outline>
</glyph>
<glyph name="one.lf" format="2">
  <advance width="1136"/>
  <outline>
    <contour>
      <point x="7.0" y="0.0" type="line"/>
      <point x="7.0" y="54.0" type="line"/>
      <point x="335.0" y="89.0" type="line"/>
      <point x="335.0" y="754.0" type="line"/>
      <point x="330.0" y="1344.0" type="line"/>
      <point x="5.0" y="1376.0" type="line"/>
      <point x="5.0" y="1432.0" type="line"/>
      <point x="795.0" y="1514.0" type="line"/>
      <point x="816.0" y="1495.0" type="line"/>
      <point x="807.0" y="753.0" type="line"/>
      <point x="807.0" y="89.0" type="line"/>
      <point x="1124.0" y="54.0" type="line"/>
      <point x="1124.0" y="0.0" type="line"/>
    </contour>
  </outline>
</glyph>
<glyph name="seven.lf" format="2">
  <advance width="1346"/>
  <outline>
    <contour>
      <point x="109.0" y="1041.0" type="line"/>
      <point x="107.0" y="1500.0" type="line"/>
      <point x="1279.0" y="1500.0" type="line"/>
      <point x="1279.0" y="1344.0" type="line"/>
      <point x="969.0" y="744.0" type="line"/>
      <point x="451.0" y="-53.0" type="line"/>
      <point x="325.0" y="-53.0" type="line"/>
      <point x="325.0" y="-12.0" type="line"/>
      <point x="810.0" y="728.0" type="line"/>
      <point x="1067.0" y="1166.0" type="line"/>
      <point x="1070.0" y="1173.0" type="line"/>
      <point x="190.0" y="1173.0" type="line"/>
      <point x="134.0" y="1041.0" type="line"/>
    </contour>
  </outline>
</glyph>
<glyph name="tildecomb.case" format="2">
  <advance width="896"/>
  <outline>
    <contour>
      <point x="147.0" y="1665.0" type="line"/>
      <point x="170.0" y="1720.0"/>
      <point x="266.0" y="1843.0"/>
      <point x="330.0" y="1843.0" type="qcurve" smooth="yes"/>
      <point x="371.0" y="1843.0"/>
      <point x="426.0" y="1827.0"/>
      <point x="460.0" y="1808.0" type="qcurve" smooth="yes"/>
      <point x="507.0" y="1778.0"/>
      <point x="557.0" y="1760.0"/>
      <point x="593.0" y="1760.0" type="qcurve" smooth="yes"/>
      <point x="623.0" y="1760.0"/>
      <point x="675.0" y="1799.0"/>
      <point x="690.0" y="1828.0" type="qcurve"/>
      <point x="722.0" y="1808.0" type="line"/>
      <point x="696.0" y="1743.0"/>
      <point x="614.0" y="1644.0"/>
      <point x="559.0" y="1644.0" type="qcurve" smooth="yes"/>
      <point x="520.0" y="1644.0"/>
      <point x="455.0" y="1661.0"/>
      <point x="420.0" y="1677.0" type="qcurve" smooth="yes"/>
      <point x="378.0" y="1696.0"/>
      <point x="326.0" y="1725.0"/>
      <point x="298.0" y="1725.0" type="qcurve" smooth="yes"/>
      <point x="258.0" y="1725.0"/>
      <point x="180.0" y="1673.0"/>
      <point x="166.0" y="1652.0" type="qcurve"/>
    </contour>
  </outline>
</glyph>
